<?xml version="1.0" encoding="utf-8"?>
<!-- Generator: Adobe Illustrator 16.0.0, SVG Export Plug-In . SVG Version: 6.00 Build 0)  -->
<!DOCTYPE svg PUBLIC "-//W3C//DTD SVG 1.1//EN" "http://www.w3.org/Graphics/SVG/1.1/DTD/svg11.dtd">
<svg version="1.1" id="Layer_1" xmlns="http://www.w3.org/2000/svg" xmlns:xlink="http://www.w3.org/1999/xlink" x="0px" y="0px"
	 width="960px" height="929.319px" viewBox="0 0 960 929.319" enable-background="new 0 0 960 929.319" xml:space="preserve">
<g>
	<defs>
		<rect id="SVGID_1_" width="960" height="929.319"/>
	</defs>
	<clipPath id="SVGID_2_">
		<use xlink:href="#SVGID_1_"  overflow="visible"/>
	</clipPath>
	<g clip-path="url(#SVGID_2_)">
		<defs>
			<rect id="SVGID_3_" width="960" height="929.319"/>
		</defs>
		<clipPath id="SVGID_4_">
			<use xlink:href="#SVGID_3_"  overflow="visible"/>
		</clipPath>
		<g clip-path="url(#SVGID_4_)">
			<g>
				<defs>
					<rect id="SVGID_5_" x="372.837" y="621.251" width="108.635" height="68.741"/>
				</defs>
				<clipPath id="SVGID_6_">
					<use xlink:href="#SVGID_5_"  overflow="visible"/>
				</clipPath>
				<path clip-path="url(#SVGID_6_)" fill="#E2D3E0" d="M477.14,689.993c0,0-84.78-28.643-101.965-55.565
					c-2.864-6.301-2.291-11.457-2.291-11.457l4.583-1.718c0,0,48.913,5.729,51.379,3.438c2.467-2.292,50.585,37.084,52.304,35.727
					C482.868,659.059,477.14,689.993,477.14,689.993"/>
			</g>
		</g>
		<path clip-path="url(#SVGID_4_)" fill="#EF4649" d="M508.196,663.63c0,0-39.823,130.422-42.922,138.073
			c18.728,15.434,46.676,34.205,95.898,10.011c1.251-93.856-15.434-150.587-15.434-150.587L508.196,663.63z"/>
		
			<path clip-path="url(#SVGID_4_)" fill="none" stroke="#8C292B" stroke-width="8.449" stroke-linejoin="round" stroke-miterlimit="10" d="
			M508.196,663.63c0,0-39.823,130.422-42.922,138.073c18.728,15.434,46.676,34.205,95.898,10.011
			c1.251-93.856-15.434-150.587-15.434-150.587L508.196,663.63z"/>
		<path clip-path="url(#SVGID_4_)" fill="#FFF6F1" d="M486.658,733.816c0,0,27.363,10.188,50.807,7.43
			c0-14.71-2.783-38.642-2.783-38.642s-30.429,1.514-37.036-4.514C491.958,710.908,486.658,733.816,486.658,733.816"/>
		<path clip-path="url(#SVGID_4_)" fill="#FFF6F1" d="M538.423,783.266c0,0-40.232,3.174-60.659-12.712
			c-5.901,7.716-11.551,31.919-11.551,31.919l26.491,16.295l44.76,3.077L538.423,783.266z"/>
		
			<path clip-path="url(#SVGID_4_)" fill="none" stroke="#8C292B" stroke-width="8.449" stroke-linejoin="round" stroke-miterlimit="10" d="
			M508.196,663.63c0,0-39.823,130.422-42.922,138.073c18.728,15.434,46.676,34.205,95.898,10.011
			c1.251-93.856-15.434-150.587-15.434-150.587L508.196,663.63z"/>
		<path clip-path="url(#SVGID_4_)" fill="#EF4649" d="M618.742,597.267c0,0,9.388,39.895-2.347,60.232
			c-11.732,20.337-55.538,53.191-147.059,17.209c-91.52-35.983-145.494-72.748-118.898-143.93
			C377.035,459.596,618.742,597.267,618.742,597.267"/>
		<path clip-path="url(#SVGID_4_)" fill="none" stroke="#8C292B" stroke-width="7" stroke-miterlimit="10" d="M618.742,597.267
			c0,0,9.388,39.895-2.347,60.232c-11.732,20.337-55.538,53.191-147.059,17.209c-91.52-35.983-145.494-72.748-118.898-143.93
			C377.035,459.596,618.742,597.267,618.742,597.267z"/>
		<path clip-path="url(#SVGID_4_)" fill="#FFF6F1" d="M506.011,603.175l9.384,84.961l-46.311-11.704c0,0-13.339-34.68,0.889-77.81
			c14.228-43.128,15.562-31.669,15.562-31.669L506.011,603.175z"/>
		<path clip-path="url(#SVGID_4_)" fill="#FFF6F1" d="M428.178,571.056c0,0-19.119,48.465-9.337,78.698
			c-11.169-3.112-34.236-15.117-34.236-15.117s-25.788-27.186,5.78-84.288C421.953,493.248,428.178,571.056,428.178,571.056"/>
		<path clip-path="url(#SVGID_4_)" fill="none" stroke="#8C292B" stroke-width="7" stroke-miterlimit="10" d="M618.742,597.267
			c0,0,9.388,39.895-2.347,60.232c-11.732,20.337-55.538,53.191-147.059,17.209c-91.52-35.983-145.494-72.748-118.898-143.93
			C377.035,459.596,618.742,597.267,618.742,597.267z"/>
		<path clip-path="url(#SVGID_4_)" fill="#EF4649" d="M625.096,844.229c-13.804,12.345-54.747,19.21-83.525,7.266
			c1.384-13.433,1.975-29.517,2.028-46.7c0.062-17.413-0.423-35.947-1.204-53.997c-0.898-20.898-2.176-41.144-3.422-58.221
			c-2.018-27.9-13.42-76.189-13.42-76.189s11.666-56.854,54.775,9.815c11.195,17.32,19.516,37.786,25.705,59.256
			c5.375,18.587,9.156,37.945,11.838,56.658c2.831,19.633,4.447,38.559,5.429,55.212
			C624.473,817.056,624.757,833.583,625.096,844.229"/>
		<path clip-path="url(#SVGID_4_)" fill="#FFF6F1" d="M544.783,810.91c0,0,37.444,9.099,77.143-4.519
			c3.841,14.071,3.181,40.653,3.181,40.653l-24.858,7.627h-48.402l-12.301-2.581L544.783,810.91z"/>
		<path clip-path="url(#SVGID_4_)" fill="#FFF6F1" d="M621.04,767.463c-26.561,6.421-57.165,8.216-75.478,8.681
			c-0.897-20.9,0.423-24.388-0.823-41.465c19.379-1.13,48.065-5.149,69.599-8.021C619.713,745.245,618.358,748.749,621.04,767.463"
			/>
		<path clip-path="url(#SVGID_4_)" fill="#FFF6F1" d="M538.657,688.265c20.04,2.507,55.438-2.614,62.588-9.114
			c7.15-6.501-9.102-25.352-9.102-25.352l-6.5-14.951c0,0-18.316,8.394-53.385,6.973
			C529.009,645.821,534.238,686.649,538.657,688.265"/>
		
			<path clip-path="url(#SVGID_4_)" fill="none" stroke="#8C292B" stroke-width="8.449" stroke-linejoin="round" stroke-miterlimit="10" d="
			M622.006,779.075c0.529,6.32,0.949,12.43,1.289,18.25c1.181,19.73,1.461,36.26,1.801,46.9c-13.801,12.35-54.75,19.21-83.521,7.27
			c1.38-13.43,1.97-29.52,2.021-46.7c0.069-17.409-0.42-35.949-1.2-54c-0.9-20.899-2.181-41.14-3.42-58.22
			c-2.021-27.9-17.391-103.11-17.391-103.11s15.63-29.93,58.74,36.74c9.15,14.15,16.37,30.38,22.08,47.561"/>
		<g clip-path="url(#SVGID_4_)">
			<g>
				<defs>
					<rect id="SVGID_7_" x="344.505" y="506.313" width="276.535" height="135.354"/>
				</defs>
				<clipPath id="SVGID_8_">
					<use xlink:href="#SVGID_7_"  overflow="visible"/>
				</clipPath>
				<path clip-path="url(#SVGID_8_)" fill="#E2D3E0" d="M344.505,553.236c0,0,144.514,114.789,275.966,82.803
					c0.438-26.291,0.568-28.043,0.568-28.043S356.252,507.654,354.938,506.338C353.624,505.025,344.505,553.236,344.505,553.236"/>
			</g>
		</g>
		<path clip-path="url(#SVGID_4_)" fill="none" stroke="#8C292B" stroke-width="7" stroke-miterlimit="10" d="M539.054,690.697
			c-19.252-0.625-42.351-5.229-69.717-15.988c-91.521-35.982-145.494-72.747-118.898-143.931
			c26.595-71.183,268.304,66.49,268.304,66.49s9.386,39.893-2.347,60.231c-2.536,4.396-6.572,9.378-12.265,14.121"/>
		
			<path clip-path="url(#SVGID_4_)" fill="none" stroke="#8C292B" stroke-width="8.449" stroke-linejoin="round" stroke-miterlimit="10" d="
			M543.436,817.844c0.09-4.26,0.14-8.619,0.16-13.05c0.069-17.41-0.42-35.95-1.2-54c-0.9-20.899-2.181-41.14-3.42-58.22
			c-2.021-27.9-12.67-76.57-12.67-76.57s10.909-56.47,54.02,10.2c11.2,17.32,19.521,37.78,25.71,59.25
			c5.37,18.59,9.15,37.95,11.84,56.66c2.26,15.67,3.74,30.89,4.75,44.87"/>
	</g>
	<g clip-path="url(#SVGID_2_)">
		<defs>
			<path id="SVGID_9_" d="M578.392,91.09c-17.146,6.019-49.137,49.038-49.137,49.038l-43.641,114.043
				c0,0,32.043,23.231,75.827,10.935c43.782-12.295,78.418-52.1,81.881-81.583s-7.864-64.989-22.029-83.522
				c-7.884-10.316-14.97-13.773-22.661-13.773C592.505,86.228,585.995,88.422,578.392,91.09"/>
		</defs>
		<clipPath id="SVGID_10_">
			<use xlink:href="#SVGID_9_"  overflow="visible"/>
		</clipPath>
		
			<linearGradient id="SVGID_11_" gradientUnits="userSpaceOnUse" x1="0" y1="929.3247" x2="1" y2="929.3247" gradientTransform="matrix(-26.8793 275.922 -275.922 -26.8793 256973.7969 25302.8477)">
			<stop  offset="0" style="stop-color:#DE9C6F"/>
			<stop  offset="1" style="stop-color:#D28864"/>
		</linearGradient>
		<polygon clip-path="url(#SVGID_10_)" fill="url(#SVGID_11_)" points="487.129,70.675 467.166,275.604 645.27,292.955 
			665.233,88.025 		"/>
	</g>
	<g clip-path="url(#SVGID_2_)">
		<defs>
			<rect id="SVGID_12_" width="960" height="929.319"/>
		</defs>
		<clipPath id="SVGID_13_">
			<use xlink:href="#SVGID_12_"  overflow="visible"/>
		</clipPath>
		
			<path clip-path="url(#SVGID_13_)" fill="none" stroke="#8E412A" stroke-width="7" stroke-linecap="round" stroke-miterlimit="10" d="
			M529.255,140.127c0,0,31.99-43.018,49.137-49.037c17.148-6.019,28.737-9.622,42.901,8.911
			c14.165,18.532,25.493,54.039,22.029,83.522c-3.465,29.483-38.099,69.287-81.883,81.583
			c-43.782,12.296-75.825-10.936-75.825-10.936L529.255,140.127z"/>
		<path clip-path="url(#SVGID_13_)" fill="#F6C2A0" d="M550.084,244.613c42.79-24.178,44.734-56.877,52.726-104.995
			c6.35-7.804,12.286-4.135,15.74,4.049c3.454,8.185,16.021,97.374-57.47,106.566"/>
		<path clip-path="url(#SVGID_13_)" fill="#8E412A" d="M549.497,243.618l3.313-1.949c1.105-0.648,2.138-1.351,3.211-2.024
			c1.074-0.659,2.097-1.415,3.142-2.13c1.053-0.707,2.057-1.479,3.062-2.246c1.022-0.75,2.003-1.548,2.97-2.364l1.459-1.213
			l1.404-1.273l1.401-1.277l1.345-1.334c0.913-0.874,1.771-1.801,2.618-2.736c1.713-1.855,3.303-3.819,4.813-5.841
			c0.778-0.993,1.449-2.065,2.181-3.093c0.704-1.047,1.348-2.135,2.025-3.2c0.623-1.098,1.258-2.19,1.857-3.302
			c0.564-1.131,1.179-2.236,1.702-3.388c1.078-2.287,2.087-4.611,2.973-6.986c0.459-1.181,0.892-2.373,1.288-3.578
			c0.425-1.196,0.802-2.408,1.173-3.623c0.752-2.426,1.415-4.882,2.037-7.35c1.24-4.939,2.267-9.939,3.195-14.963
			c1.848-10.052,3.354-20.192,5.042-30.311l0.078-0.304l0.212-0.217v-0.001c1-1.35,2.32-2.646,3.929-3.612
			c1.571-0.975,3.681-1.49,5.647-0.973c1.956,0.51,3.491,1.753,4.684,3.097c1.203,1.361,2.12,2.879,2.891,4.44
			c0.383,0.791,0.738,1.529,1.021,2.491c0.26,0.849,0.452,1.676,0.644,2.509c0.364,1.662,0.655,3.322,0.908,4.986
			c0.505,3.326,0.842,6.665,1.064,10.012c0.437,6.693,0.401,13.419-0.166,20.118c-0.57,6.695-1.653,13.374-3.45,19.896
			c-1.794,6.517-4.293,12.89-7.686,18.819c-3.385,5.925-7.693,11.386-12.847,15.954c-5.145,4.57-11.091,8.255-17.446,10.859
			c-3.174,1.313-6.439,2.387-9.749,3.26c-3.319,0.836-6.679,1.467-10.056,1.943l-0.619-4.961c3.2-0.397,6.379-0.936,9.509-1.666
			c3.119-0.766,6.186-1.717,9.164-2.888c5.964-2.322,11.515-5.635,16.364-9.791c4.854-4.154,8.967-9.171,12.259-14.707
			c3.299-5.536,5.796-11.57,7.63-17.809c1.839-6.244,3.005-12.701,3.673-19.212c0.666-6.514,0.817-13.093,0.503-19.646
			c-0.16-3.277-0.436-6.55-0.868-9.792c-0.217-1.62-0.473-3.234-0.792-4.818c-0.166-0.787-0.337-1.579-0.551-2.32
			c-0.161-0.639-0.502-1.415-0.833-2.118c-0.67-1.424-1.47-2.778-2.448-3.922c-0.97-1.14-2.145-2.056-3.42-2.408
			c-1.271-0.347-2.634-0.084-3.891,0.647c-1.261,0.722-2.387,1.817-3.395,3.019v0.001l0.234-0.52
			c-1.679,10.1-3.177,20.242-5.028,30.354c-0.931,5.054-1.963,10.1-3.215,15.104c-0.629,2.501-1.301,4.994-2.065,7.464
			c-0.376,1.236-0.759,2.47-1.19,3.691c-0.404,1.229-0.844,2.446-1.313,3.654c-0.903,2.427-1.935,4.809-3.04,7.157
			c-0.536,1.181-1.167,2.32-1.745,3.482c-0.616,1.143-1.27,2.267-1.909,3.398c-0.696,1.098-1.359,2.217-2.084,3.296
			c-0.751,1.061-1.444,2.165-2.245,3.19c-1.555,2.084-3.192,4.11-4.955,6.021c-0.872,0.964-1.754,1.919-2.692,2.818l-1.383,1.374
			l-1.438,1.313l-1.443,1.308l-1.495,1.246c-0.992,0.837-1.997,1.657-3.042,2.425c-1.03,0.787-2.058,1.577-3.133,2.301
			c-1.069,0.733-2.108,1.502-3.218,2.185c-1.098,0.689-2.187,1.428-3.29,2.076l-3.312,1.95L549.497,243.618z"/>
		<path clip-path="url(#SVGID_13_)" fill="#8E412A" d="M604.143,123.157c0,0,0.003,0.137,0.009,0.403
			c0.012,0.255,0.026,0.633,0.047,1.127c0.035,1.03,0.103,2.544,0.124,4.472c0.053,3.854,0.064,9.367-0.306,15.977
			c-0.165,3.305-0.456,6.881-0.817,10.662c-0.384,3.778-0.846,7.763-1.506,11.863c-0.334,2.049-0.67,4.135-1.093,6.233
			c-0.379,2.107-0.844,4.224-1.323,6.359c-0.438,2.142-1.049,4.267-1.57,6.422c-0.596,2.137-1.201,4.283-1.862,6.415
			c-0.72,2.115-1.336,4.265-2.175,6.336c-0.397,1.042-0.794,2.083-1.189,3.121c-0.404,1.035-0.871,2.044-1.302,3.062
			c-0.449,1.011-0.851,2.037-1.337,3.023c-0.485,0.987-0.967,1.968-1.446,2.944l-0.718,1.46c-0.251,0.48-0.524,0.946-0.784,1.418
			c-0.526,0.94-1.049,1.873-1.567,2.798c-1.05,1.845-2.245,3.572-3.331,5.311c-1.192,1.673-2.409,3.28-3.59,4.847
			c-1.285,1.489-2.513,2.96-3.751,4.34c-1.315,1.315-2.586,2.586-3.806,3.806c-1.32,1.121-2.585,2.196-3.787,3.218
			c-1.219,1.004-2.5,1.802-3.639,2.633c-0.581,0.401-1.133,0.805-1.685,1.166c-0.571,0.33-1.123,0.648-1.652,0.953
			c-1.061,0.609-2.035,1.169-2.915,1.674c-1.808,0.92-3.29,1.521-4.273,1.983c-0.992,0.445-1.521,0.683-1.521,0.683
			c-1.763,0.79-3.83,0.003-4.62-1.759c-0.787-1.753-0.011-3.809,1.732-4.608l0.302-0.138c0,0,0.469-0.215,1.348-0.618
			c0.873-0.415,2.185-0.959,3.802-1.758c0.785-0.445,1.654-0.938,2.602-1.474c0.474-0.267,0.967-0.545,1.479-0.834
			c0.493-0.319,0.986-0.679,1.506-1.034c1.021-0.738,2.17-1.434,3.271-2.326c1.097-0.897,2.252-1.84,3.456-2.825
			c1.125-1.084,2.296-2.213,3.509-3.381c1.147-1.237,2.292-2.562,3.497-3.897c1.111-1.422,2.25-2.886,3.396-4.4
			c1.055-1.586,2.217-3.148,3.251-4.844c0.513-0.853,1.029-1.711,1.55-2.576c0.257-0.434,0.527-0.863,0.777-1.307l0.72-1.356
			c0.48-0.908,0.966-1.82,1.452-2.738c0.489-0.917,0.899-1.883,1.357-2.829c0.438-0.956,0.914-1.9,1.33-2.876
			c0.408-0.98,0.817-1.963,1.228-2.948c0.856-1.956,1.538-3.998,2.32-6c0.723-2.025,1.396-4.073,2.061-6.115
			c0.594-2.065,1.274-4.098,1.791-6.164c0.553-2.055,1.095-4.097,1.552-6.136c0.501-2.029,0.915-4.054,1.328-6.045
			c0.425-1.988,0.759-3.962,1.138-5.885c0.327-1.932,0.66-3.822,0.939-5.67c0.556-3.696,1.031-7.202,1.37-10.452
			c0.723-6.495,1.106-11.938,1.286-15.752c0.162-3.85,0.254-6.05,0.254-6.05c0.021-0.492,0.437-0.874,0.929-0.853
			c0.471,0.02,0.842,0.402,0.853,0.867L604.143,123.157z"/>
		<path clip-path="url(#SVGID_13_)" fill="#98564B" d="M496.289,223.25c8.984,1.865,17.196,2.788,24.966-10.75
			c7.771-13.538,18.615-38.909,16.27-58.572s-8.646-46.971-30.688-50.561c-19.565-3.186-27.303,17.263-24.008,25.724
			c3.578,9.185,9.53,15.238,13.704,19.553c6.991,7.228,9.303,17.58-4.243,25.472c0,0-1.348-3.673-1.952-8.421
			s-6.372-11.831-14.192-8.939c-7.82,2.891-12.84,10.6-10.435,19.355c2.405,8.756,9.369,15.099,11.528,17.525
			c2.159,2.426,7.545,5.891,7.566,11.091c0.023,5.199-2.248,10.684,0.815,13.435C488.682,220.912,492.742,222.514,496.289,223.25"/>
		<g clip-path="url(#SVGID_13_)">
			<g>
				<defs>
					<rect id="SVGID_14_" x="490.283" y="103.954" width="47.463" height="122.303"/>
				</defs>
				<clipPath id="SVGID_15_">
					<use xlink:href="#SVGID_14_"  overflow="visible"/>
				</clipPath>
				<path clip-path="url(#SVGID_15_)" fill="#E2D3E0" d="M490.283,218.696c0,0,13.384,2.521,17.33-1.671
					c3.945-4.192,21.271-36.316,19.406-54.021c-2.469-23.446-4.908-46.681-15.433-53.175c-10.524-6.494-10.113-5.858-10.113-5.858
					l17.964,3.701l11.713,15.827l6.596,29.048l-1.176,24.979l-13.062,30.867l-16.88,17.864L490.283,218.696z"/>
			</g>
		</g>
		<path clip-path="url(#SVGID_13_)" fill="#4F332E" d="M496.737,221c1.308,0.265,2.542,0.511,3.758,0.685
			c1.229,0.188,2.436,0.302,3.613,0.318c2.364,0.069,4.561-0.405,6.549-1.404c1.989-0.996,3.752-2.562,5.284-4.414
			c1.55-1.864,2.847-3.921,4.089-6.2c2.508-4.515,4.753-9.162,6.77-13.93c2.009-4.761,3.774-9.624,5.21-14.565
			c1.432-4.94,2.54-9.965,3.115-15.015c0.191-1.261,0.225-2.524,0.319-3.786c0.122-1.264,0.065-2.518,0.077-3.775
			c0.046-1.263-0.125-2.496-0.201-3.742c-0.064-1.209-0.281-2.574-0.439-3.828c-0.695-5.119-1.62-10.213-2.923-15.169
			c-1.307-4.951-2.984-9.795-5.299-14.251c-2.31-4.441-5.288-8.512-9.109-11.468c-3.807-2.974-8.395-4.715-13.291-5.068
			c-2.261-0.142-4.705,0.04-6.877,0.759c-1.108,0.325-2.15,0.827-3.17,1.364c-0.994,0.584-1.948,1.244-2.828,2.006
			c-3.502,3.058-5.913,7.543-6.727,12.18c-0.411,2.291-0.379,4.718,0.305,6.55l0.733,1.759c0.262,0.549,0.494,1.094,0.776,1.648
			c0.562,1.111,1.15,2.21,1.809,3.272c2.58,4.297,5.939,8.067,9.585,11.797l0.396,0.414l0.328,0.367l0.655,0.734
			c0.435,0.48,0.913,1.15,1.361,1.721c0.437,0.599,0.803,1.217,1.202,1.827c0.35,0.646,0.7,1.294,1.018,1.961
			c1.214,2.69,1.848,5.858,1.307,8.952c-0.502,3.099-2.114,5.875-4.11,7.985c-2.02,2.122-4.363,3.714-6.754,5.11l-0.001,0.001
			l-1.972,1.201l-0.872-2.339c-0.857-2.299-1.496-4.586-2.003-6.947l-0.354-1.651c-0.07-0.269-0.137-0.611-0.208-0.818
			c-0.072-0.188-0.139-0.376-0.199-0.568c-0.357-0.889-0.851-1.754-1.423-2.548c-1.161-1.586-2.712-2.821-4.39-3.38
			c-0.841-0.277-1.714-0.363-2.599-0.327c-0.443,0.058-0.891,0.105-1.338,0.219l-0.671,0.202l-0.168,0.049l-0.085,0.024
			l-0.021,0.005c0.033-0.013-0.102,0.039,0.068-0.028l-0.051,0.021l-0.407,0.17l-0.813,0.341c-0.282,0.113-0.44,0.227-0.667,0.338
			l-0.636,0.335l-0.649,0.411c-0.872,0.54-1.647,1.205-2.391,1.893c-1.436,1.429-2.548,3.145-3.229,5.011
			c-0.702,1.863-0.872,3.891-0.643,5.887l0.091,0.75l0.167,0.745l0.149,0.676l0.263,0.841c0.088,0.273,0.172,0.58,0.265,0.824
			l0.278,0.712c0.165,0.469,0.401,0.967,0.624,1.459c0.913,1.965,2.058,3.851,3.38,5.641c1.319,1.795,2.785,3.494,4.365,5.167
			c0.787,0.814,1.644,1.771,2.391,2.536l2.52,2.374c1.758,1.729,3.65,3.796,4.591,6.687c0.121,0.354,0.222,0.718,0.284,1.098
			c0.076,0.374,0.146,0.749,0.16,1.135l0.037,0.576l0.008,0.144c0,0.048,0.004-0.005,0.002,0.125l-0.001,0.055l-0.005,0.221
			c-0.011,0.306-0.004,0.56-0.029,0.909c-0.07,1.382-0.227,2.54-0.381,3.73c-0.153,1.169-0.305,2.292-0.357,3.32
			c-0.054,1.023,0.011,1.957,0.24,2.562c0.135,0.284,0.242,0.538,0.45,0.725c0.041,0.041,0.107,0.124,0.119,0.139l0.335,0.287
			c0.239,0.213,0.403,0.327,0.594,0.48c0.794,0.615,1.698,1.178,2.631,1.662c1.872,0.978,3.936,1.686,6.037,2.13L496.737,221z
			 M495.823,225.495c-2.498-0.524-4.927-1.347-7.229-2.54c-1.152-0.599-2.257-1.277-3.326-2.099
			c-0.269-0.212-0.577-0.448-0.777-0.627l-0.335-0.287c-0.204-0.184-0.328-0.326-0.492-0.496c-0.635-0.64-1.074-1.456-1.396-2.249
			c-0.584-1.615-0.583-3.086-0.532-4.4c0.066-1.321,0.234-2.53,0.383-3.693c0.149-1.14,0.292-2.317,0.339-3.284
			c0.021-0.237,0.016-0.572,0.026-0.853l0.004-0.221l0.001-0.055c0,0.094-0.002,0.004-0.003,0.015l-0.008-0.076l-0.022-0.304
			c0.002-0.203-0.044-0.405-0.087-0.607c-0.027-0.203-0.085-0.405-0.158-0.606c-0.51-1.626-1.824-3.228-3.41-4.753
			c-0.809-0.788-1.632-1.497-2.615-2.46c-0.895-0.917-1.605-1.716-2.453-2.591c-3.305-3.489-6.472-7.421-8.591-12.04
			c-0.261-0.579-0.527-1.145-0.756-1.785l-0.353-0.934c-0.112-0.307-0.181-0.569-0.274-0.855l-0.261-0.843l-0.038-0.127
			l-0.014-0.061l-0.028-0.122l-0.056-0.244l-0.109-0.488l-0.211-0.978l-0.126-0.999c-0.306-2.663-0.056-5.453,0.901-8
			c0.931-2.552,2.451-4.863,4.355-6.743c0.976-0.913,2.003-1.774,3.13-2.476l0.844-0.528c0.298-0.168,0.616-0.326,0.924-0.486
			c0.3-0.148,0.646-0.342,0.911-0.447l0.814-0.339l0.407-0.17l0.051-0.021c0.187-0.073,0.07-0.026,0.12-0.045l0.032-0.009
			l0.127-0.039l0.254-0.078l1.019-0.3c0.688-0.174,1.419-0.266,2.137-0.341c1.463-0.074,2.958,0.092,4.355,0.557
			c2.798,0.947,5.039,2.843,6.647,5.039c0.801,1.111,1.478,2.304,1.992,3.6l0.369,1.102c0.107,0.353,0.147,0.59,0.225,0.891
			l0.024,0.107l0.046,0.219l0.037,0.211l0.073,0.424l0.152,0.847l1.293,6.766l-2.845-1.137c2.083-1.337,4.049-2.818,5.583-4.575
			c1.557-1.733,2.604-3.752,2.889-5.861c0.291-2.105-0.1-4.303-1.06-6.374c-0.253-0.512-0.536-1.017-0.811-1.523
			c-0.329-0.479-0.635-0.993-0.977-1.45c-0.374-0.451-0.639-0.867-1.09-1.357l-0.662-0.727l-0.331-0.364l-0.285-0.295
			c-3.681-3.765-7.374-7.88-10.207-12.602c-0.724-1.169-1.376-2.385-1.997-3.616c-0.313-0.615-0.601-1.277-0.899-1.914l-0.779-1.874
			c-0.588-1.558-0.81-3.101-0.869-4.599c-0.054-1.501,0.068-2.966,0.322-4.393c0.5-2.855,1.479-5.577,2.854-8.1
			c1.379-2.518,3.183-4.832,5.383-6.757c1.104-0.958,2.312-1.799,3.584-2.539c1.295-0.695,2.636-1.325,4.046-1.745
			c0.696-0.24,1.418-0.383,2.128-0.561c0.721-0.108,1.439-0.283,2.165-0.326c0.725-0.076,1.449-0.135,2.172-0.128
			c0.713-0.03,1.463,0.013,2.212,0.063c5.572,0.39,11.229,2.498,15.687,6.016c4.506,3.495,7.84,8.128,10.36,12.971
			c2.527,4.869,4.294,10.011,5.666,15.2c1.365,5.197,2.316,10.452,3.034,15.731c0.169,1.348,0.372,2.579,0.458,3.992
			c0.088,1.371,0.267,2.749,0.223,4.114c-0.01,1.366,0.043,2.74-0.084,4.091c-0.1,1.355-0.143,2.72-0.343,4.056
			c-0.611,5.381-1.779,10.642-3.268,15.78c-1.494,5.139-3.318,10.16-5.389,15.069c-2.071,4.899-4.399,9.717-6.988,14.378
			c-1.268,2.326-2.768,4.743-4.578,6.911c-1.805,2.176-4.024,4.202-6.735,5.565c-2.694,1.374-5.796,1.986-8.674,1.896
			c-1.447-0.02-2.858-0.16-4.223-0.367c-1.382-0.199-2.722-0.469-3.986-0.724L495.823,225.495z"/>
		<path clip-path="url(#SVGID_13_)" fill="#4F332E" d="M499.524,182.924c0,0-0.078-0.014-0.226-0.04
			c-0.186-0.034-0.386-0.087-0.652-0.157c-0.517-0.152-1.235-0.401-2.037-0.814c-0.393-0.219-0.83-0.446-1.247-0.747
			c-0.211-0.148-0.428-0.301-0.65-0.458c-0.206-0.174-0.417-0.352-0.632-0.533c-0.445-0.352-0.812-0.797-1.236-1.214
			c-0.36-0.457-0.764-0.909-1.091-1.403c-0.309-0.5-0.683-0.983-0.926-1.505c-0.252-0.517-0.563-1.015-0.747-1.526
			c-0.202-0.507-0.409-0.998-0.581-1.468c-0.143-0.476-0.279-0.926-0.404-1.341c-0.273-0.833-0.351-1.535-0.474-2.026
			c-0.102-0.493-0.159-0.774-0.159-0.774c-0.256-1.244,0.544-2.46,1.789-2.716c1.244-0.256,2.46,0.545,2.716,1.789
			c0.017,0.081,0.029,0.163,0.036,0.244l0.017,0.165c0,0,0.022,0.237,0.062,0.653c0.06,0.409,0.05,1.031,0.2,1.719
			c0.062,0.35,0.131,0.729,0.202,1.13c0.104,0.388,0.216,0.797,0.331,1.22c0.096,0.436,0.3,0.826,0.447,1.262
			c0.141,0.442,0.39,0.819,0.579,1.242c0.206,0.411,0.474,0.774,0.705,1.163c0.284,0.337,0.521,0.722,0.823,1.014
			c0.146,0.156,0.288,0.308,0.427,0.457c0.152,0.135,0.302,0.267,0.446,0.396c0.286,0.265,0.594,0.464,0.866,0.666
			c0.562,0.377,1.068,0.617,1.419,0.768c0.16,0.062,0.286,0.109,0.372,0.141c0.055,0.025,0.149,0.045,0.142,0.044l0.007,0.002
			c0.729,0.16,1.189,0.88,1.029,1.608C500.921,182.594,500.232,183.048,499.524,182.924"/>
		<path clip-path="url(#SVGID_13_)" fill="#98564B" d="M496.289,223.25c8.984,1.865,17.196,2.788,24.966-10.75
			c7.771-13.538,18.615-38.909,16.27-58.572s-8.646-46.971-30.688-50.561c-19.565-3.186-27.303,17.263-24.008,25.724
			c3.578,9.185,9.53,15.238,13.704,19.553c6.991,7.228,9.303,17.58-4.243,25.472c0,0-1.348-3.673-1.952-8.421
			s-6.372-11.831-14.192-8.939c-7.82,2.891-12.84,10.6-10.435,19.355c2.405,8.756,9.369,15.099,11.528,17.525
			c2.159,2.426,7.545,5.891,7.566,11.091c0.023,5.199-2.248,10.684,0.815,13.435C488.682,220.912,492.742,222.514,496.289,223.25"/>
		<g clip-path="url(#SVGID_13_)">
			<g>
				<defs>
					<rect id="SVGID_16_" x="490.283" y="103.954" width="47.463" height="122.303"/>
				</defs>
				<clipPath id="SVGID_17_">
					<use xlink:href="#SVGID_16_"  overflow="visible"/>
				</clipPath>
				<path clip-path="url(#SVGID_17_)" fill="#E2D3E0" d="M490.283,218.696c0,0,13.384,2.521,17.33-1.671
					c3.945-4.192,21.271-36.316,19.406-54.021c-2.469-23.446-4.908-46.681-15.433-53.175c-10.524-6.494-10.113-5.858-10.113-5.858
					l17.964,3.701l11.713,15.827l6.596,29.048l-1.176,24.979l-13.062,30.867l-16.88,17.864L490.283,218.696z"/>
			</g>
		</g>
		<path clip-path="url(#SVGID_13_)" fill="#4F332E" d="M496.812,220.625l1.916,0.377c0.607,0.1,1.218,0.229,1.824,0.303
			c1.218,0.186,2.406,0.297,3.561,0.312c2.322,0.066,4.442-0.398,6.369-1.366c1.928-0.966,3.649-2.494,5.158-4.319
			c1.526-1.839,2.805-3.865,4.044-6.141c2.498-4.504,4.733-9.136,6.743-13.893c2.001-4.75,3.759-9.6,5.187-14.524
			c1.424-4.923,2.525-9.926,3.093-14.946c0.19-1.255,0.224-2.508,0.315-3.762c0.122-1.256,0.064-2.499,0.076-3.746
			c0.045-1.254-0.126-2.473-0.201-3.707c-0.063-1.191-0.282-2.567-0.44-3.813c-0.694-5.104-1.621-10.182-2.919-15.115
			c-1.299-4.928-2.965-9.745-5.258-14.164c-2.287-4.404-5.23-8.424-8.987-11.333c-3.745-2.926-8.235-4.636-13.07-4.989
			c-2.198-0.139-4.603,0.037-6.716,0.738c-1.084,0.316-2.1,0.805-3.094,1.329c-0.97,0.57-1.901,1.212-2.762,1.957
			c-3.425,2.983-5.803,7.395-6.601,11.942c-0.408,2.242-0.364,4.618,0.279,6.339l0.729,1.75c0.259,0.542,0.485,1.076,0.766,1.625
			c0.555,1.101,1.138,2.191,1.789,3.244c2.558,4.262,5.887,8.005,9.528,11.734l0.404,0.424l0.327,0.367l0.655,0.735
			c0.211,0.221,0.452,0.542,0.686,0.843l0.697,0.908c0.445,0.611,0.816,1.238,1.223,1.859c0.355,0.658,0.712,1.317,1.033,1.997
			c1.236,2.742,1.891,5.991,1.329,9.167c-0.521,3.182-2.18,6.021-4.213,8.162c-2.06,2.152-4.435,3.754-6.852,5.155l-2.259,1.365
			l-1.061-2.692c-0.46-1.168-0.835-2.29-1.169-3.456c-0.348-1.155-0.647-2.323-0.905-3.504l-0.344-1.64
			c-0.068-0.266-0.137-0.618-0.206-0.812c-0.068-0.173-0.129-0.346-0.185-0.523c-0.345-0.856-0.821-1.693-1.375-2.461
			c-1.124-1.535-2.618-2.715-4.201-3.242c-0.795-0.261-1.616-0.34-2.453-0.308c-0.42,0.057-0.844,0.1-1.271,0.21l-0.642,0.194
			l-0.161,0.046l-0.081,0.022l-0.02,0.006c0.039-0.016-0.117,0.044,0.083-0.035l-0.051,0.021l-0.407,0.171l-0.813,0.34
			c-0.283,0.114-0.426,0.222-0.646,0.33l-0.613,0.322l-0.632,0.401c-0.851,0.527-1.605,1.175-2.329,1.844
			c-1.398,1.392-2.476,3.058-3.136,4.867c-0.68,1.806-0.844,3.77-0.621,5.711l0.088,0.73l0.163,0.724l0.141,0.646l0.263,0.842
			c0.088,0.271,0.173,0.582,0.265,0.82l0.271,0.694c0.16,0.455,0.394,0.947,0.613,1.432c0.901,1.936,2.032,3.801,3.341,5.574
			c1.306,1.779,2.759,3.463,4.334,5.131c0.782,0.81,1.651,1.779,2.386,2.531l2.512,2.368c1.771,1.745,3.712,3.851,4.688,6.846
			c0.126,0.368,0.229,0.744,0.294,1.139c0.08,0.389,0.152,0.778,0.167,1.18l0.038,0.598l0.254,0.15l0.248,0.037v0.1l-0.247,0.055
			l-0.128,0.22c-0.011,0.308-0.065,0.555-0.091,0.914c-0.072,1.416-0.261,2.573-0.416,3.768c-0.152,1.169-0.317,2.285-0.369,3.289
			c-0.055,0.998,0.008,1.887,0.208,2.408c0.119,0.241,0.194,0.448,0.367,0.597c0.03,0.03,0.091,0.108,0.086,0.109l0.333,0.288
			c0.243,0.215,0.396,0.319,0.579,0.467c0.771,0.597,1.658,1.151,2.572,1.626c1.837,0.96,3.869,1.658,5.938,2.095L496.812,220.625z
			 M495.745,225.87c-2.53-0.531-4.989-1.363-7.327-2.574c-1.172-0.609-2.293-1.296-3.384-2.135c-0.275-0.217-0.597-0.464-0.793-0.64
			l-0.335-0.286c-0.221-0.198-0.349-0.346-0.522-0.526c-0.672-0.678-1.139-1.542-1.476-2.376c-0.614-1.699-0.606-3.216-0.558-4.554
			c0.067-1.345,0.237-2.562,0.385-3.724c0.15-1.136,0.291-2.314,0.336-3.247c0.021-0.228,0.016-0.569,0.025-0.848l0.004-0.221
			l0.002-0.055c0-0.025-0.001,0.109-0.002,0.045l-0.001-0.018l-0.007-0.07l-0.022-0.282c0.003-0.188-0.041-0.375-0.081-0.563
			c-0.023-0.188-0.079-0.376-0.147-0.565c-0.475-1.521-1.739-3.084-3.312-4.592c-0.804-0.783-1.617-1.481-2.623-2.467
			c-0.908-0.93-1.606-1.716-2.459-2.596c-3.318-3.503-6.517-7.468-8.661-12.143c-0.264-0.586-0.533-1.157-0.767-1.811l-0.359-0.953
			c-0.114-0.313-0.182-0.57-0.275-0.858l-0.261-0.842l-0.042-0.141l-0.014-0.062l-0.029-0.124l-0.056-0.249l-0.112-0.497
			l-0.215-0.998l-0.128-1.02c-0.312-2.718-0.056-5.572,0.922-8.176c0.952-2.609,2.506-4.97,4.449-6.887
			c0.995-0.932,2.043-1.809,3.192-2.524l0.86-0.539c0.304-0.172,0.632-0.334,0.948-0.498c0.306-0.151,0.668-0.352,0.931-0.456
			l0.814-0.339l0.407-0.169l0.051-0.021c0.217-0.085,0.079-0.03,0.136-0.051l0.032-0.01l0.131-0.041l0.261-0.079l1.049-0.309
			c0.708-0.179,1.462-0.275,2.203-0.351c1.511-0.077,3.058,0.095,4.5,0.576c2.893,0.979,5.191,2.93,6.836,5.177
			c0.82,1.138,1.513,2.358,2.04,3.688l0.384,1.146c0.11,0.365,0.147,0.594,0.226,0.898l0.075,0.344l0.037,0.21l0.074,0.421
			l0.156,0.843c0.409,2.239,0.849,4.531,1.222,6.754l-3.318-1.327h0.001c2.056-1.332,3.99-2.804,5.485-4.53
			c1.519-1.702,2.521-3.658,2.785-5.685c0.271-2.022-0.099-4.139-1.038-6.158c-0.247-0.5-0.524-0.993-0.794-1.488
			c-0.322-0.469-0.624-0.973-0.956-1.418l-0.508-0.647c-0.17-0.217-0.315-0.426-0.56-0.679l-0.663-0.727l-0.332-0.364l-0.277-0.285
			c-3.684-3.766-7.407-7.907-10.264-12.664c-0.73-1.179-1.389-2.404-2.015-3.645c-0.317-0.62-0.608-1.292-0.91-1.937l-0.785-1.883
			c-0.61-1.613-0.836-3.196-0.897-4.727c-0.055-1.534,0.068-3.025,0.326-4.475c0.506-2.902,1.498-5.663,2.892-8.225
			c1.399-2.557,3.229-4.909,5.47-6.87c1.123-0.976,2.354-1.834,3.649-2.589c1.319-0.708,2.686-1.35,4.124-1.78
			c0.709-0.245,1.443-0.391,2.168-0.572c0.733-0.111,1.466-0.289,2.203-0.333c0.737-0.077,1.476-0.137,2.209-0.131
			c0.725-0.031,1.49,0.012,2.257,0.064c5.633,0.39,11.388,2.528,15.906,6.095c4.57,3.542,7.939,8.225,10.483,13.105
			c2.549,4.906,4.327,10.076,5.707,15.286c1.368,5.222,2.32,10.492,3.037,15.786c0.17,1.357,0.37,2.576,0.458,4.007
			c0.089,1.384,0.266,2.775,0.222,4.149c-0.01,1.376,0.042,2.761-0.087,4.121c-0.099,1.363-0.144,2.737-0.345,4.08
			c-0.619,5.411-1.794,10.693-3.29,15.849c-1.502,5.156-3.333,10.189-5.412,15.11c-2.078,4.91-4.416,9.742-7.014,14.415
			c-1.271,2.329-2.789,4.776-4.624,6.969c-1.829,2.204-4.087,4.268-6.861,5.66c-2.755,1.406-5.933,2.028-8.855,1.934
			c-1.469-0.02-2.898-0.163-4.273-0.372c-0.697-0.088-1.372-0.229-2.059-0.345l-1.945-0.385L495.745,225.87z"/>
		<path clip-path="url(#SVGID_13_)" fill="#4F332E" d="M499.481,183.145c-0.01-0.003-0.039,0-0.232-0.039
			c-0.196-0.036-0.401-0.089-0.676-0.159c-0.53-0.153-1.268-0.401-2.089-0.818c-0.401-0.22-0.852-0.45-1.279-0.753
			c-0.216-0.151-0.439-0.305-0.666-0.463c-0.212-0.177-0.429-0.357-0.65-0.54c-0.455-0.357-0.836-0.807-1.27-1.23
			c-0.372-0.463-0.787-0.923-1.123-1.423c-0.32-0.508-0.703-0.999-0.955-1.527c-0.261-0.524-0.582-1.031-0.771-1.549
			c-0.211-0.513-0.425-1.012-0.603-1.489c-0.148-0.482-0.29-0.937-0.42-1.358c-0.285-0.845-0.369-1.554-0.498-2.052
			c-0.105-0.498-0.167-0.783-0.167-0.783c-0.31-1.451,0.615-2.877,2.065-3.187s2.877,0.615,3.187,2.065
			c0.023,0.108,0.039,0.215,0.049,0.321l0.017,0.196c0,0,0.02,0.234,0.054,0.643c0.053,0.403,0.037,1.018,0.177,1.693
			c0.059,0.345,0.12,0.718,0.186,1.113c0.099,0.381,0.203,0.783,0.31,1.199c0.089,0.43,0.284,0.811,0.423,1.24
			c0.132,0.436,0.37,0.804,0.55,1.22c0.196,0.404,0.452,0.76,0.674,1.143c0.271,0.33,0.497,0.71,0.789,0.998
			c0.139,0.153,0.275,0.304,0.409,0.451c0.146,0.133,0.29,0.263,0.43,0.39c0.274,0.263,0.571,0.459,0.835,0.659
			c0.542,0.374,1.03,0.614,1.365,0.765c0.15,0.06,0.269,0.107,0.35,0.139c0.044,0.024,0.145,0.046,0.135,0.045
			c0.844,0.191,1.372,1.03,1.181,1.873c-0.166,0.731-0.818,1.226-1.54,1.22L499.481,183.145z"/>
	</g>
	<g clip-path="url(#SVGID_2_)">
		<defs>
			<path id="SVGID_18_" d="M430.156,202.534c-62.623,5.133-105.32,40.569-127.873,67.148
				c-41.984,49.462-39.726,108.901-23.624,171.849c16.103,62.948,107.845,139.996,228.862,177.979
				c40.537,12.721,75.615,13.415,104.977,8.127c8.56-1.549,16.628-3.605,24.207-6.013c10.058-3.209,43.556-20.643,54.732-33.982
				c5.706-0.198,17.469-6.146,26.031-15.047c5.68-5.907,11.67-18.104,14.699-32.588c0.035-0.148,0.059-0.285,0.093-0.434
				c5.228-25.604,1.939-57.352-23.583-68.881c-40.142-18.127-46.318-54.658-69.524-116.058
				c-23.218-61.39-43.8-80.617-70.764-103.448c-24.964-21.142-68.487-49.212-124.486-49.215
				C439.398,201.971,434.82,202.152,430.156,202.534"/>
		</defs>
		<clipPath id="SVGID_19_">
			<use xlink:href="#SVGID_18_"  overflow="visible"/>
		</clipPath>
		
			<linearGradient id="SVGID_20_" gradientUnits="userSpaceOnUse" x1="0" y1="929.3354" x2="1" y2="929.3354" gradientTransform="matrix(-26.8793 275.922 -275.922 -26.8793 256932.5469 25298.8477)">
			<stop  offset="0" style="stop-color:#DE9C6F"/>
			<stop  offset="1" style="stop-color:#D28864"/>
		</linearGradient>
		<polygon clip-path="url(#SVGID_19_)" fill="url(#SVGID_20_)" points="264.785,155.922 218.712,628.873 733.002,678.973 
			779.075,206.022 		"/>
	</g>
	<g clip-path="url(#SVGID_2_)">
		<defs>
			<rect id="SVGID_21_" width="960" height="929.319"/>
		</defs>
		<clipPath id="SVGID_22_">
			<use xlink:href="#SVGID_21_"  overflow="visible"/>
		</clipPath>
		<path clip-path="url(#SVGID_22_)" fill="none" stroke="#8E412A" stroke-width="8" stroke-miterlimit="10" d="M278.659,441.531
			c16.103,62.948,107.845,139.996,228.862,177.979c40.538,12.721,75.616,13.415,104.977,8.127
			c8.561-1.547,16.627-3.605,24.207-6.012c10.059-3.21,43.557-20.645,54.732-33.983c5.706-0.197,17.468-6.146,26.032-15.047
			c5.679-5.907,11.67-18.104,14.698-32.588c0.034-0.147,0.059-0.286,0.093-0.434c5.227-25.604,1.939-57.352-23.582-68.881
			c-40.143-18.128-46.319-54.659-69.525-116.058c-23.217-61.39-43.8-80.617-70.764-103.448
			c-26.973-22.843-75.603-53.774-138.234-48.652c-62.622,5.132-105.319,40.569-127.873,67.148
			C260.299,319.144,262.556,378.583,278.659,441.531z"/>
		<path clip-path="url(#SVGID_22_)" fill="#F6C2A0" d="M324.498,314.509c0,0-82.819,12.76-116.233-19.834
			c-27.052-26.389-39.073-62.784-39.975-70.148c-3.175-25.931,40.9-8.399,40.9-8.399l24.321,30.41l36.199,26.865l59.476,27.869
			L324.498,314.509z"/>
		<path clip-path="url(#SVGID_22_)" fill="none" stroke="#8E412A" stroke-width="2.309" stroke-miterlimit="10" d="M324.498,314.509
			c0,0-82.819,12.76-116.233-19.834c-27.052-26.389-39.073-62.784-39.975-70.148c-3.175-25.931,40.9-8.399,40.9-8.399l24.321,30.41
			l36.199,26.865l59.476,27.869L324.498,314.509z"/>
		<g clip-path="url(#SVGID_22_)">
			<g>
				<defs>
					<rect id="SVGID_23_" x="188.763" y="187.073" width="140.199" height="119.439"/>
				</defs>
				<clipPath id="SVGID_24_">
					<use xlink:href="#SVGID_23_"  overflow="visible"/>
				</clipPath>
				<path clip-path="url(#SVGID_24_)" fill="#E2D3E0" d="M327.193,306.512c0,0-57.391-11.63-73.377-21.532
					c-17.744-10.992-59.6-57.42-65.053-97.907c11.458,15.14,27.358,39.693,27.358,39.693l42.21,37.917l62.346,31.449l8.285,2.604
					L327.193,306.512z"/>
			</g>
		</g>
		<path clip-path="url(#SVGID_22_)" fill="none" stroke="#8E412A" stroke-width="2.309" stroke-miterlimit="10" d="M324.498,314.509
			c0,0-82.819,12.76-116.233-19.834c-27.052-26.389-39.073-62.784-39.975-70.148c-3.175-25.931,40.9-8.399,40.9-8.399l24.321,30.41
			l36.199,26.865l59.476,27.869L324.498,314.509z"/>
		<path clip-path="url(#SVGID_22_)" fill="#8E412A" d="M329.032,301.823c0,0-0.658-0.234-1.893-0.674
			c-1.228-0.451-3.031-1.113-5.325-1.956c-2.289-0.847-5.042-1.942-8.204-3.188c-3.154-1.264-6.705-2.711-10.56-4.338
			c-3.852-1.635-8.02-3.422-12.366-5.461c-2.187-0.986-4.406-2.066-6.678-3.161c-2.28-1.076-4.583-2.239-6.918-3.434
			c-1.169-0.597-2.347-1.198-3.534-1.804c-1.174-0.635-2.357-1.273-3.547-1.916c-1.187-0.649-2.394-1.276-3.584-1.954
			c-1.186-0.689-2.377-1.382-3.574-2.077c-4.801-2.75-9.52-5.878-14.1-9.257c-1.162-0.814-2.231-1.801-3.348-2.694l-1.656-1.371
			c-0.289-0.246-0.522-0.42-0.857-0.724l-0.756-0.709c-2.011-1.917-4.044-3.712-5.996-5.736c-1.975-1.969-3.911-3.942-5.726-5.938
			c-0.919-0.992-1.833-1.979-2.741-2.958c-0.882-1-1.757-1.994-2.625-2.978c-3.481-3.934-6.704-7.848-9.712-11.593
			c-2.997-3.755-5.727-7.383-8.164-10.789c-1.197-1.718-2.344-3.365-3.435-4.93c-1.048-1.596-2.041-3.109-2.975-4.531
			c-1.823-2.874-3.372-5.402-4.589-7.523c-1.228-2.113-2.138-3.806-2.751-4.966c-0.597-1.171-0.915-1.795-0.915-1.795
			c-0.132-0.258-0.029-0.574,0.229-0.705c0.224-0.114,0.493-0.052,0.645,0.137l0.007,0.009c0,0,0.437,0.54,1.256,1.552
			c0.815,1.016,2.009,2.506,3.53,4.402c3.023,3.785,7.341,9.192,12.524,15.68c1.33,1.589,2.635,3.307,4.056,5.029
			c1.416,1.723,2.88,3.505,4.386,5.336c3.026,3.646,6.264,7.453,9.745,11.261c0.868,0.954,1.744,1.916,2.626,2.884
			c0.904,0.946,1.815,1.898,2.732,2.856c0.923,0.948,1.83,1.938,2.779,2.867c0.946,0.932,1.897,1.869,2.852,2.809
			c1.853,1.902,3.966,3.743,5.973,5.627l0.762,0.704l0.739,0.606l1.558,1.266c1.057,0.828,2.035,1.731,3.156,2.501l3.32,2.345
			l1.662,1.166l1.725,1.091c2.297,1.455,4.553,2.948,6.91,4.275c1.164,0.682,2.323,1.362,3.476,2.039
			c1.16,0.667,2.344,1.287,3.504,1.928c1.165,0.634,2.322,1.265,3.471,1.892c1.165,0.6,2.322,1.197,3.469,1.788
			c2.294,1.185,4.556,2.339,6.804,3.41c2.237,1.089,4.421,2.163,6.581,3.147c4.298,2.006,8.384,3.864,12.166,5.56
			c3.787,1.684,7.279,3.185,10.382,4.498c3.113,1.287,5.827,2.409,8.062,3.333c2.239,0.906,3.998,1.618,5.197,2.104
			c1.204,0.473,1.845,0.725,1.845,0.725l0.02,0.008c1.187,0.467,1.771,1.808,1.304,2.995
			C331.499,301.655,330.2,302.237,329.032,301.823"/>
	</g>
	<g clip-path="url(#SVGID_2_)">
		<defs>
			<path id="SVGID_25_" d="M149.006,177.502c-4.981,22.008,1.406,72.538,19.767,102.203c18.361,29.667,39.34,62.271,84.456,62.818
				c45.115,0.548,80.502,0.007,80.502,0.007l33.738-74.077c0,0-53.976-75.929-114.374-101.507
				c-22.948-9.718-42.768-13.705-58.794-13.705C168.147,153.24,152.093,163.856,149.006,177.502"/>
		</defs>
		<clipPath id="SVGID_26_">
			<use xlink:href="#SVGID_25_"  overflow="visible"/>
		</clipPath>
		
			<linearGradient id="SVGID_27_" gradientUnits="userSpaceOnUse" x1="0" y1="929.3169" x2="1" y2="929.3169" gradientTransform="matrix(-26.8793 275.922 -275.922 -26.8793 256670.5469 25273.3477)">
			<stop  offset="0" style="stop-color:#DE9C6F"/>
			<stop  offset="1" style="stop-color:#D28864"/>
		</linearGradient>
		<polygon clip-path="url(#SVGID_26_)" fill="url(#SVGID_27_)" points="146.125,131.677 125.706,341.287 365.369,364.633 
			385.788,155.024 		"/>
	</g>
	<g clip-path="url(#SVGID_2_)">
		<defs>
			<rect id="SVGID_28_" width="960" height="929.319"/>
		</defs>
		<clipPath id="SVGID_29_">
			<use xlink:href="#SVGID_28_"  overflow="visible"/>
		</clipPath>
		<path clip-path="url(#SVGID_29_)" fill="#8E412A" d="M366.875,268.877c0,0-1.537-1.608-4.419-4.622
			c-2.817-3.044-6.95-7.509-12.209-13.192c-5.239-5.676-11.481-12.65-18.82-20.478c-7.375-7.788-15.972-16.321-25.899-24.976
			c-9.929-8.633-21.187-17.447-33.999-25.206c-6.404-3.864-13.209-7.453-20.39-10.448c-7.3-3.039-14.846-5.787-22.692-8.014
			c-7.836-2.217-15.953-3.909-24.223-4.727c-8.255-0.805-16.705-0.755-24.855,0.82c-4.065,0.792-8.044,1.981-11.74,3.681
			c-3.694,1.689-7.103,3.922-9.827,6.719c-1.354,1.401-2.535,2.938-3.473,4.591c-0.462,0.83-0.879,1.681-1.225,2.557
			c-0.162,0.442-0.336,0.88-0.465,1.332c-0.068,0.225-0.146,0.447-0.199,0.676l-0.16,0.616c-0.497,2.261-0.782,4.09-1.041,6.259
			c-0.231,2.112-0.403,4.247-0.487,6.4c-0.354,8.613,0.193,17.359,1.249,25.986c1.076,8.632,2.674,17.181,4.829,25.502
			c2.163,8.315,4.844,16.425,8.226,24.076c1.701,3.818,3.58,7.517,5.679,11.026c2.148,3.573,4.374,7.151,6.578,10.63
			c4.434,6.966,8.981,13.657,13.936,19.76c4.951,6.096,10.282,11.63,16.082,16.233c5.803,4.585,12.027,8.282,18.478,10.83
			c6.426,2.622,13.043,4.068,19.46,4.825c1.614,0.122,3.205,0.317,4.792,0.373c1.594,0.058,3.132,0.142,4.743,0.155
			c3.183,0.055,6.292,0.109,9.323,0.162c6.06,0.1,11.809,0.196,17.211,0.286c10.808,0.201,20.23,0.376,27.989,0.52
			c15.523,0.377,24.394,0.593,24.394,0.593c0.391,0.008,0.701,0.332,0.692,0.723c-0.007,0.371-0.306,0.671-0.671,0.692
			c0,0-2.218,0.114-6.377,0.33c-4.159,0.162-10.259,0.451-18.025,0.674c-7.766,0.227-17.197,0.439-28.017,0.533
			c-5.411,0.057-11.166,0.094-17.239,0.071c-3.033-0.009-6.145-0.019-9.33-0.028c-1.573,0.013-3.254-0.061-4.914-0.106
			c-1.669-0.045-3.353-0.23-5.057-0.345c-6.792-0.731-13.86-2.202-20.761-4.938c-6.926-2.658-13.628-6.551-19.83-11.358
			c-6.2-4.823-11.852-10.588-17.051-16.863c-5.203-6.284-9.93-13.103-14.495-20.123c-2.281-3.525-4.521-7.047-6.762-10.693
			c-2.274-3.719-4.291-7.601-6.113-11.584c-3.62-7.978-6.472-16.349-8.79-24.912c-2.308-8.567-4.037-17.345-5.235-26.24
			c-1.175-8.899-1.839-17.918-1.556-27.043c0.067-2.281,0.227-4.573,0.456-6.871c0.233-2.239,0.629-4.796,1.071-6.867
			c1.108-5.148,3.783-9.584,7.217-13.147c3.441-3.554,7.553-6.218,11.835-8.199c4.292-1.99,8.774-3.332,13.274-4.225
			c9.019-1.77,18.084-1.826,26.849-1.006c8.776,0.839,17.287,2.591,25.46,4.872c8.167,2.29,16.037,5.104,23.497,8.266
			c7.59,3.197,14.663,6.966,21.299,11c13.263,8.096,24.763,17.177,34.878,26.029c10.108,8.875,18.818,17.583,26.283,25.519
			c7.496,7.911,13.61,15.191,18.303,21.447c4.714,6.242,8.067,11.408,10.267,14.982c2.171,3.597,3.186,5.617,3.186,5.617
			l0.003,0.006c0.183,0.365,0.036,0.808-0.328,0.992C367.442,269.176,367.092,269.105,366.875,268.877"/>
		<path clip-path="url(#SVGID_29_)" fill="#F6C2A0" d="M341.368,311.079c0,0-89.574,13.014-125.583-16.688
			c-29.813-24.59-46.593-62.5-47.495-69.864c-3.175-25.931,38.959-7.609,38.959-7.609l22.394,29.878l38.87,31.734l59.257,26.741
			L341.368,311.079z"/>
		<path clip-path="url(#SVGID_29_)" fill="none" stroke="#8E412A" stroke-width="4" stroke-miterlimit="10" d="M341.368,311.079
			c0,0-89.574,13.014-125.583-16.688c-29.813-24.59-46.593-62.5-47.495-69.864c-3.175-25.931,38.959-7.609,38.959-7.609
			l22.394,29.878l38.87,31.734l59.257,26.741L341.368,311.079z"/>
		<g clip-path="url(#SVGID_29_)">
			<g>
				<defs>
					<rect id="SVGID_30_" x="192.121" y="194.002" width="161.76" height="122.148"/>
				</defs>
				<clipPath id="SVGID_31_">
					<use xlink:href="#SVGID_30_"  overflow="visible"/>
				</clipPath>
				<path clip-path="url(#SVGID_31_)" fill="#E2D3E0" d="M331.297,315.955c-7.026-0.684-57.391-11.63-73.377-21.532
					c-17.744-10.992-60.346-59.933-65.799-100.42c11.458,15.139,28.104,42.206,28.104,42.206l42.21,37.917l62.346,31.449l29.1,9.732
					C353.881,315.307,338.323,316.639,331.297,315.955"/>
			</g>
		</g>
		<path clip-path="url(#SVGID_29_)" fill="#8E412A" d="M356.577,317.162c0,0-3.119-1.112-8.577-3.059
			c-5.438-1.996-13.195-4.881-22.45-8.495c-9.239-3.655-19.977-8.03-31.376-13.016c-5.704-2.485-11.54-5.192-17.439-8.037
			c-5.894-2.855-11.838-5.872-17.687-9.149c-5.838-3.314-11.626-6.734-16.994-11.115l-1.006-0.821l-0.952-0.839l-1.816-1.61
			c-1.21-1.145-2.472-2.275-3.616-3.422c-2.364-2.258-4.55-4.617-6.693-6.941c-4.27-4.661-8.05-9.446-11.446-14.098
			c-3.401-4.652-6.374-9.207-9.019-13.462c-1.342-2.115-2.533-4.202-3.683-6.172c-1.148-1.971-2.193-3.866-3.148-5.661
			c-1.933-3.576-3.494-6.76-4.744-9.397c-1.244-2.64-2.155-4.747-2.759-6.192c-0.582-1.459-0.893-2.237-0.893-2.237
			c-0.155-0.388,0.034-0.827,0.421-0.982c0.331-0.132,0.699-0.014,0.896,0.265l0.012,0.017c0,0,1.911,2.698,5.254,7.42
			c1.674,2.348,3.707,5.199,6.039,8.47c2.354,3.247,4.994,6.91,7.935,10.849c2.931,3.945,6.165,8.165,9.639,12.563
			c3.487,4.389,7.234,8.939,11.188,13.556c2.01,2.276,4.067,4.58,6.225,6.824c1.067,1.153,2.162,2.203,3.252,3.319l1.753,1.674
			l0.843,0.802l0.86,0.749c4.583,4.032,10.096,7.598,15.635,10.991c11.165,6.765,22.939,12.719,34.011,18.189
			c11.089,5.458,21.583,10.295,30.62,14.349c9.023,4.091,16.594,7.396,21.905,9.679c5.315,2.277,8.351,3.578,8.351,3.578
			l0.011,0.004c0.383,0.165,0.561,0.609,0.397,0.993C357.368,317.116,356.95,317.293,356.577,317.162"/>
		<path clip-path="url(#SVGID_29_)" fill="#98564B" d="M400.667,235.985c-9.055,6.042-17.679,10.705-32.24-0.736
			s-37.762-34.534-43.916-57.207c-6.154-22.673-11.355-55.513,11.301-69.253c20.109-12.196,37.704,6.862,37.837,17.634
			c0.144,11.693-3.715,20.996-6.389,27.597c-4.481,11.057-2.426,23.472,15.982,26.137c0,0-0.149-4.639-1.593-10.131
			c-1.444-5.492,1.753-15.846,11.641-16.139c9.887-0.293,18.834,5.957,20.077,16.658c1.243,10.701-3.599,20.771-4.897,24.399
			c-1.297,3.628-5.683,9.833-3.398,15.563c2.285,5.729,7.219,10.755,5.072,15.141S404.242,233.6,400.667,235.985"/>
		<g clip-path="url(#SVGID_29_)">
			<g>
				<defs>
					<rect id="SVGID_32_" x="318.007" y="107.057" width="87.244" height="136.829"/>
				</defs>
				<clipPath id="SVGID_33_">
					<use xlink:href="#SVGID_32_"  overflow="visible"/>
				</clipPath>
				<path clip-path="url(#SVGID_33_)" fill="#E2D3E0" d="M405.251,228.308c0,0-13.604,8.719-19.806,5.86
					s-39.532-30.501-45.346-50.808c-7.698-26.889-15.336-53.532-6.643-65.352c8.693-11.819,8.523-10.937,8.523-10.937
					l-18.118,12.052l-5.854,22.614l5.647,34.885l12.389,26.956l28.081,28.155l26.505,12.153L405.251,228.308z"/>
			</g>
		</g>
		<path clip-path="url(#SVGID_29_)" fill="#4F332E" d="M402.159,238.261l-1.968,1.285c-0.697,0.429-1.373,0.881-2.094,1.284
			c-0.707,0.416-1.422,0.826-2.179,1.2c-0.731,0.399-1.518,0.74-2.303,1.081c-3.127,1.379-6.81,2.085-10.386,1.771
			c-3.591-0.293-6.933-1.535-9.887-3.127c-2.956-1.58-5.681-3.572-8.109-5.567c-4.921-3.976-9.625-8.24-14.082-12.709
			c-4.461-4.479-8.701-9.191-12.63-14.18c-3.922-4.991-7.547-10.26-10.615-15.909c-0.814-1.381-1.469-2.864-2.18-4.311
			c-0.741-1.43-1.295-2.966-1.913-4.465c-0.655-1.483-1.073-3.078-1.586-4.628c-0.534-1.593-0.858-3.036-1.271-4.595
			c-1.559-6.127-2.85-12.331-3.66-18.658c-0.794-6.32-1.131-12.766-0.512-19.249c0.626-6.453,2.239-13.035,5.65-18.887
			c1.693-2.915,3.826-5.607,6.316-7.907c1.242-1.155,2.574-2.207,3.964-3.16l1.057-0.694l0.528-0.346l0.067-0.043l0.146-0.086
			l0.127-0.071l0.255-0.143c0.708-0.381,1.283-0.759,2.143-1.144c0.803-0.389,1.61-0.769,2.409-1.053
			c0.793-0.328,1.617-0.585,2.449-0.824c0.818-0.275,1.686-0.401,2.529-0.603c0.861-0.12,1.72-0.283,2.592-0.327
			c1.741-0.164,3.498-0.065,5.233,0.124c1.728,0.25,3.433,0.64,5.074,1.205c3.279,1.142,6.292,2.889,8.929,5.048
			c2.634,2.168,4.919,4.73,6.737,7.651c0.913,1.457,1.698,3.017,2.305,4.692c0.601,1.677,1.042,3.474,1.086,5.45l-0.026,2.409
			c-0.046,0.834-0.067,1.688-0.139,2.505c-0.136,1.631-0.316,3.258-0.593,4.866c-1.021,6.454-3.259,12.62-5.638,18.395l-0.183,0.452
			l-0.203,0.547l-0.406,1.095c-0.154,0.383-0.226,0.69-0.319,1.013l-0.277,0.964c-0.172,0.654-0.28,1.354-0.43,2.028
			c-0.077,0.679-0.164,1.36-0.214,2.036c-0.137,2.704,0.41,5.297,1.666,7.482c1.248,2.194,3.299,3.949,5.779,5.166
			c2.47,1.249,5.29,2.006,8.175,2.552l-2.623,2.514l-1.597-8.015l-0.201-1.001l-0.104-0.499l-0.052-0.249l-0.047-0.261l-0.019-0.129
			c-0.049-0.365-0.111-0.644-0.15-1.08l-0.083-1.376c-0.01-1.655,0.205-3.268,0.593-4.846c0.793-3.13,2.416-6.211,5.074-8.496
			c1.33-1.132,2.901-1.978,4.543-2.546c0.823-0.238,1.668-0.46,2.502-0.575l1.255-0.122l0.314-0.028l0.157-0.014l0.039-0.24
			c0.064-0.002-0.086-0.241,0.152-0.241h0.066l0.523,0.243l1.046,0.13c0.338-0.002,0.804,0.117,1.2,0.146
			c0.411,0.04,0.831,0.101,1.233,0.154l1.163,0.221c1.552,0.271,3.064,0.77,4.543,1.34c2.93,1.223,5.628,3.094,7.787,5.488
			c2.183,2.377,3.698,5.337,4.544,8.402l0.306,1.156l0.202,1.17l0.096,0.586l0.047,0.293l0.024,0.146l0.012,0.073l0.015,0.158
			l0.086,1.042c0.026,0.357,0.066,0.675,0.079,1.063l0.027,1.185c0.032,0.805-0.01,1.546-0.04,2.299
			c-0.279,6.023-2.016,11.755-4.102,17.061c-0.544,1.34-0.97,2.534-1.548,3.94c-0.653,1.496-1.243,2.641-1.783,3.869
			c-1.068,2.381-1.802,4.727-1.64,6.742c0.009,0.255,0.034,0.503,0.095,0.738c0.043,0.241,0.081,0.483,0.174,0.706l0.11,0.345
			l0.026,0.086l0.006,0.022c0.025,0.063-0.027-0.061-0.016-0.037l0.025,0.06l0.103,0.241c0.135,0.305,0.279,0.676,0.407,0.927
			c0.482,1.043,1.161,2.274,1.832,3.462c0.679,1.214,1.402,2.469,2.062,3.892c0.638,1.424,1.294,3.042,1.368,5.078
			c-0.002,1.015-0.122,2.108-0.537,3.094c-0.105,0.26-0.177,0.472-0.321,0.765l-0.241,0.464c-0.14,0.286-0.375,0.683-0.577,1.036
			c-0.811,1.378-1.724,2.614-2.726,3.786c-2.002,2.334-4.309,4.318-6.824,6.005L402.159,238.261z M399.156,233.722
			c2.115-1.422,4.07-3.117,5.696-5.025c0.81-0.947,1.555-1.968,2.155-2.996c0.142-0.254,0.273-0.452,0.441-0.793l0.24-0.464
			c0.006-0.021,0.043-0.143,0.069-0.206c0.146-0.298,0.151-0.625,0.174-0.997c-0.016-0.767-0.36-1.824-0.874-2.924
			c-0.514-1.108-1.18-2.276-1.867-3.494c-0.698-1.241-1.386-2.445-2.077-3.934c-0.182-0.373-0.288-0.656-0.435-0.988l-0.104-0.24
			l-0.026-0.06l-0.039-0.098l-0.014-0.041l-0.055-0.162l-0.215-0.649c-0.157-0.431-0.246-0.875-0.328-1.321
			c-0.1-0.446-0.152-0.89-0.176-1.334c-0.248-3.597,0.915-6.712,2.081-9.393l1.717-3.732c0.483-1.174,1-2.606,1.504-3.852
			c0.996-2.543,1.854-5.062,2.507-7.623c0.659-2.556,1.08-5.14,1.213-7.706c0.026-0.641,0.065-1.294,0.038-1.883l-0.011-0.907
			c-0.006-0.31-0.05-0.685-0.073-1.024l-0.085-1.042l-0.137-0.81l-0.147-0.893l-0.233-0.866c-0.634-2.298-1.723-4.453-3.323-6.191
			c-1.578-1.75-3.563-3.144-5.778-4.078c-1.124-0.426-2.272-0.813-3.471-1.02l-0.896-0.164l-0.849-0.086
			c-0.299-0.021-0.523-0.076-0.883-0.076l-1.046,0.008l-0.523,0.014h-0.066c0.217,0,0.045-0.02,0.087-0.02l-0.026-0.008
			l-0.103,0.006l-0.207,0.019l-0.828,0.075c-0.284,0-0.528,0.109-0.793,0.158c-0.257,0.07-0.531,0.099-0.776,0.194
			c-0.989,0.354-1.912,0.835-2.714,1.513c-1.596,1.36-2.754,3.409-3.327,5.669c-0.277,1.128-0.435,2.298-0.433,3.435
			c0.018,0.238,0.029,0.474,0.033,0.713c0.013,0.259,0.092,0.666,0.135,0.992l0.356,1.971c0.243,1.407,0.439,2.82,0.58,4.238
			c0.159,1.424,0.259,2.822,0.29,4.297l0.063,3.074l-2.686-0.326h-0.001c-3.25-1-6.536-1.302-9.7-2.739
			c-3.134-1.434-6.14-3.83-8.069-7.016c-1.969-3.163-2.679-6.96-2.538-10.458c0.052-0.875,0.15-1.757,0.248-2.623
			c0.169-0.849,0.297-1.699,0.511-2.552l0.357-1.287c0.121-0.425,0.241-0.875,0.376-1.216l0.395-1.1l0.197-0.55l0.252-0.631
			c2.35-5.724,4.369-11.364,5.296-17.237c0.252-1.461,0.411-2.931,0.533-4.402c0.065-0.735,0.078-1.437,0.122-2.157l0.024-2.261
			c-0.063-2.315-1.105-4.997-2.576-7.332c-2.955-4.736-7.598-8.594-12.805-10.397c-1.305-0.447-2.646-0.748-3.998-0.948
			c-1.357-0.138-2.724-0.226-4.087-0.091c-2.705,0.175-5.471,1.061-7.89,2.221c-5.224,2.564-9.49,6.514-12.351,11.471
			c-2.884,4.944-4.349,10.741-4.914,16.647c-0.564,5.926-0.254,11.996,0.509,18.02c0.766,6.028,2.008,12.041,3.514,17.98
			c0.382,1.45,0.749,3.049,1.215,4.406c0.469,1.403,0.828,2.834,1.438,4.203c0.57,1.377,1.064,2.78,1.76,4.117
			c0.663,1.346,1.26,2.719,2.03,4.022c2.871,5.299,6.32,10.333,10.086,15.132c3.771,4.798,7.871,9.365,12.194,13.712
			c4.334,4.351,8.865,8.466,13.627,12.321c2.378,1.957,4.717,3.643,7.248,5.006c2.507,1.357,5.14,2.298,7.77,2.511
			c2.628,0.217,5.255-0.235,7.826-1.36c0.642-0.281,1.287-0.553,1.923-0.902c0.64-0.314,1.275-0.678,1.91-1.051
			c0.64-0.354,1.259-0.77,1.889-1.154l1.942-1.267L399.156,233.722z"/>
		<path clip-path="url(#SVGID_29_)" fill="#4F332E" d="M377.449,190.377c-0.008,0.005,0.088-0.06,0.137-0.112
			c0.08-0.073,0.198-0.182,0.347-0.32c0.317-0.322,0.767-0.811,1.219-1.475c0.21-0.343,0.46-0.698,0.657-1.118
			c0.102-0.205,0.207-0.417,0.315-0.633c0.087-0.226,0.176-0.457,0.267-0.692c0.204-0.457,0.292-0.985,0.454-1.482
			c0.083-0.531,0.216-1.049,0.26-1.593c0.021-0.549,0.127-1.074,0.085-1.623c-0.031-0.545,0.02-1.065-0.068-1.588
			c-0.062-0.516-0.121-1.015-0.178-1.488c-0.099-0.473-0.193-0.921-0.28-1.333c-0.14-0.823-0.426-1.504-0.543-1.98
			c-0.141-0.475-0.222-0.746-0.222-0.746l-0.055-0.186c-0.43-1.444,0.392-2.963,1.837-3.393c1.444-0.43,2.963,0.393,3.393,1.837
			c0.028,0.095,0.051,0.193,0.069,0.288c0,0,0.061,0.335,0.168,0.921c0.053,0.293,0.117,0.648,0.19,1.056
			c0.082,0.403,0.152,0.866,0.188,1.384c0.047,0.512,0.098,1.067,0.152,1.654c0.02,0.594,0.01,1.227,0.013,1.874
			c0.026,0.644-0.096,1.33-0.144,2.011c-0.036,0.682-0.232,1.378-0.35,2.066c-0.14,0.689-0.383,1.366-0.578,2.029
			c-0.279,0.646-0.487,1.299-0.82,1.884c-0.155,0.294-0.308,0.584-0.458,0.867c-0.175,0.271-0.345,0.535-0.511,0.793
			c-0.326,0.516-0.707,0.96-1.04,1.375c-0.699,0.811-1.38,1.403-1.88,1.801c-0.263,0.195-0.46,0.342-0.648,0.462
			c-0.184,0.123-0.223,0.138-0.23,0.144l-0.186,0.084c-0.802,0.365-1.747,0.009-2.112-0.793
			C376.573,191.636,376.821,190.806,377.449,190.377"/>
		<path clip-path="url(#SVGID_29_)" fill="#98564B" d="M400.667,235.985c-9.055,6.042-17.679,10.705-32.24-0.736
			s-37.762-34.534-43.916-57.207c-6.154-22.673-11.355-55.513,11.301-69.253c20.109-12.196,37.704,6.862,37.837,17.634
			c0.144,11.693-3.715,20.996-6.389,27.597c-4.481,11.057-2.426,23.472,15.982,26.137c0,0-0.149-4.639-1.593-10.131
			c-1.444-5.492,1.753-15.846,11.641-16.139c9.887-0.293,18.834,5.957,20.077,16.658c1.243,10.701-3.599,20.771-4.897,24.399
			c-1.297,3.628-5.683,9.833-3.398,15.563c2.285,5.729,7.219,10.755,5.072,15.141S404.242,233.6,400.667,235.985"/>
		<g clip-path="url(#SVGID_29_)">
			<g>
				<defs>
					<rect id="SVGID_34_" x="318.007" y="107.057" width="87.244" height="136.829"/>
				</defs>
				<clipPath id="SVGID_35_">
					<use xlink:href="#SVGID_34_"  overflow="visible"/>
				</clipPath>
				<path clip-path="url(#SVGID_35_)" fill="#E2D3E0" d="M405.251,228.308c0,0-13.604,8.719-19.806,5.86
					s-39.532-30.501-45.346-50.808c-7.698-26.889-15.336-53.532-6.643-65.352c8.693-11.819,8.523-10.937,8.523-10.937
					l-18.118,12.052l-5.854,22.614l5.647,34.885l12.389,26.956l28.081,28.155l26.505,12.153L405.251,228.308z"/>
			</g>
		</g>
		<path clip-path="url(#SVGID_29_)" fill="#4F332E" d="M402.407,238.64l-1.969,1.287c-0.703,0.433-1.384,0.888-2.112,1.294
			c-0.713,0.42-1.435,0.834-2.201,1.213c-0.739,0.404-1.538,0.75-2.335,1.096c-3.173,1.401-6.945,2.127-10.6,1.806
			c-3.67-0.301-7.071-1.568-10.062-3.179l-1.134-0.602l-1.066-0.672c-0.698-0.461-1.448-0.874-2.1-1.378l-1.999-1.47l-0.25-0.184
			l-0.156-0.117l-0.113-0.092l-0.455-0.366l-0.909-0.733c-4.934-3.985-9.652-8.263-14.12-12.741
			c-4.472-4.49-8.723-9.214-12.666-14.219c-3.935-5.007-7.574-10.295-10.659-15.973c-0.818-1.388-1.477-2.88-2.192-4.336
			c-0.745-1.438-1.304-2.985-1.926-4.494c-0.659-1.492-1.082-3.101-1.598-4.663c-0.54-1.613-0.86-3.043-1.276-4.611
			c-1.564-6.143-2.858-12.363-3.672-18.715c-0.797-6.344-1.137-12.822-0.512-19.351c0.631-6.498,2.257-13.146,5.711-19.074
			c1.714-2.952,3.877-5.682,6.402-8.013c1.258-1.17,2.608-2.237,4.016-3.201l1.07-0.703l0.536-0.35l0.067-0.044l0.161-0.094
			l0.127-0.071l0.254-0.143c0.712-0.383,1.273-0.754,2.158-1.152c0.82-0.397,1.643-0.785,2.454-1.072
			c0.805-0.333,1.642-0.595,2.488-0.837c0.831-0.28,1.715-0.409,2.572-0.613c0.877-0.123,1.751-0.288,2.639-0.334
			c1.773-0.166,3.561-0.066,5.328,0.127c1.759,0.255,3.495,0.652,5.164,1.227c3.335,1.162,6.394,2.936,9.069,5.127
			c2.672,2.2,4.988,4.796,6.836,7.764c0.927,1.48,1.726,3.066,2.346,4.777c0.613,1.712,1.067,3.553,1.112,5.599l-0.026,2.421
			c-0.046,0.843-0.068,1.712-0.141,2.534c-0.137,1.644-0.318,3.285-0.597,4.905c-1.03,6.502-3.286,12.712-5.666,18.492l-0.178,0.436
			l-0.204,0.547l-0.406,1.095c-0.157,0.386-0.225,0.682-0.315,0.996l-0.27,0.937c-0.169,0.637-0.276,1.326-0.423,1.985
			c-0.075,0.664-0.161,1.329-0.212,1.989c-0.136,2.638,0.397,5.132,1.593,7.236c1.192,2.112,3.163,3.819,5.589,5.016
			c2.414,1.236,5.198,1.968,8.047,2.547h0.001l-3.061,2.933c-0.585-2.609-1.119-5.325-1.657-7.972l-0.202-0.996l-0.105-0.496
			l-0.052-0.249l-0.05-0.282l-0.02-0.13c-0.049-0.368-0.11-0.637-0.151-1.087l-0.087-1.431c-0.01-1.698,0.209-3.348,0.606-4.964
			c0.812-3.202,2.473-6.37,5.22-8.731c1.374-1.17,2.999-2.047,4.696-2.633c0.421-0.154,0.856-0.228,1.286-0.339
			c0.431-0.088,0.865-0.233,1.293-0.254l1.291-0.126l0.323-0.029l0.161-0.013l0.041-0.012c0.072-0.002-0.104-0.013,0.171-0.013
			h0.066l0.523,0.014l1.046,0.016c0.336-0.002,0.823,0.06,1.227,0.09c0.421,0.04,0.853,0.075,1.264,0.128l1.185,0.211
			c1.582,0.277,3.125,0.777,4.633,1.359c2.989,1.247,5.747,3.154,7.954,5.601c2.233,2.43,3.782,5.456,4.646,8.585l0.312,1.179
			l0.207,1.193l0.098,0.597l0.048,0.298l0.024,0.15l0.012,0.074l0.016,0.173l0.087,1.043c0.026,0.358,0.066,0.671,0.079,1.066
			l0.028,1.207c0.033,0.824-0.009,1.572-0.04,2.334c-0.281,6.095-2.038,11.878-4.133,17.206c-0.548,1.347-0.966,2.521-1.552,3.947
			l-0.255,0.583l-0.233,0.502l-0.455,0.967l-0.846,1.828c-1.06,2.357-1.757,4.638-1.603,6.522c0.007,0.238,0.031,0.47,0.088,0.687
			c0.04,0.224,0.074,0.449,0.161,0.655l0.101,0.32l0.024,0.08l0.006,0.021c0.028,0.071-0.033-0.076-0.021-0.049l0.025,0.06
			l0.103,0.241c0.134,0.303,0.281,0.681,0.405,0.922c0.464,1.006,1.142,2.239,1.811,3.423c0.678,1.213,1.406,2.476,2.078,3.925
			c0.649,1.45,1.33,3.116,1.409,5.258c0,1.068-0.13,2.225-0.567,3.269c-0.111,0.276-0.186,0.495-0.342,0.811l-0.241,0.464
			c-0.138,0.281-0.381,0.694-0.588,1.056c-0.828,1.407-1.755,2.661-2.774,3.851c-2.033,2.371-4.369,4.379-6.917,6.087
			L402.407,238.64z M398.905,233.344c2.082-1.4,4.008-3.071,5.602-4.943c0.794-0.929,1.525-1.932,2.108-2.931
			c0.137-0.246,0.259-0.427,0.429-0.772l0.24-0.465c-0.006,0.002,0.029-0.112,0.048-0.158c0.124-0.241,0.119-0.505,0.143-0.823
			c-0.01-0.662-0.329-1.671-0.832-2.744c-0.502-1.082-1.163-2.243-1.851-3.461c-0.7-1.246-1.389-2.448-2.097-3.974
			c-0.187-0.383-0.289-0.658-0.438-0.992l-0.103-0.241l-0.026-0.06l-0.044-0.109l-0.015-0.042l-0.057-0.168l-0.224-0.675
			c-0.163-0.449-0.256-0.909-0.341-1.372c-0.104-0.463-0.157-0.924-0.182-1.384c-0.256-3.728,0.943-6.907,2.117-9.614l1.712-3.721
			c0.474-1.154,0.999-2.606,1.5-3.844c0.992-2.534,1.842-5.033,2.489-7.57c0.651-2.532,1.068-5.085,1.199-7.615
			c0.026-0.632,0.064-1.277,0.038-1.848l-0.01-0.884c-0.005-0.303-0.05-0.683-0.073-1.021l-0.084-1.042l-0.132-0.773l-0.143-0.87
			l-0.227-0.842c-0.617-2.234-1.67-4.322-3.22-6.006c-1.53-1.697-3.456-3.051-5.611-3.961c-1.095-0.414-2.213-0.793-3.382-0.994
			l-0.874-0.161l-0.817-0.082c-0.29-0.021-0.495-0.076-0.857-0.076l-1.046-0.221l-0.523-0.214h-0.065
			c0.254,0,0.056,0.208,0.106,0.209l-0.025,0.106l-0.099,0.063l-0.197,0.047l-0.792,0.085c-0.274-0.001-0.503,0.112-0.755,0.157
			c-0.244,0.068-0.506,0.097-0.737,0.187c-0.935,0.336-1.803,0.789-2.562,1.429c-1.507,1.283-2.626,3.246-3.181,5.434
			c-0.268,1.091-0.421,2.224-0.419,3.318c0.017,0.219,0.027,0.438,0.028,0.658c0.011,0.245,0.092,0.662,0.134,0.985l0.351,1.957
			c0.475,2.84,0.78,5.643,0.809,8.578l0.034,3.344l-3.094-0.557h-0.002c-3.285,0-6.606-1.103-9.827-2.554
			c-3.188-1.453-6.273-3.802-8.259-7.071c-2.029-3.245-2.753-7.091-2.611-10.656c0.052-0.891,0.151-1.766,0.25-2.647
			c0.171-0.863,0.301-1.713,0.519-2.583l0.364-1.307c0.123-0.435,0.246-0.893,0.38-1.23l0.394-1.099l0.197-0.549l0.257-0.647
			c2.348-5.719,4.349-11.315,5.268-17.14c0.249-1.448,0.407-2.905,0.528-4.363c0.064-0.728,0.076-1.417,0.121-2.128l0.024-2.248
			c-0.057-2.18-1.065-4.813-2.509-7.099c-2.898-4.647-7.473-8.444-12.566-10.204c-1.277-0.438-2.588-0.731-3.908-0.927
			c-1.326-0.134-2.661-0.22-3.993-0.088c-0.666,0.029-1.327,0.167-1.991,0.252c-0.653,0.168-1.322,0.247-1.966,0.474
			c-0.651,0.187-1.301,0.386-1.934,0.654c-0.66,0.231-1.24,0.516-1.824,0.792c-5.163,2.536-9.343,6.412-12.163,11.295
			c-2.84,4.868-4.293,10.599-4.853,16.459c-0.559,5.88-0.252,11.918,0.508,17.918c0.763,6.003,2.001,12,3.502,17.924
			c0.38,1.44,0.751,3.052,1.21,4.389c0.466,1.391,0.82,2.809,1.426,4.168c0.566,1.367,1.056,2.759,1.747,4.088
			c0.659,1.338,1.251,2.702,2.018,3.998c2.855,5.27,6.289,10.285,10.042,15.068c3.758,4.782,7.846,9.337,12.157,13.673
			c4.324,4.34,8.841,8.443,13.59,12.288l0.909,0.734l0.454,0.366l0.113,0.092c-0.025-0.021,0.057,0.04,0.08,0.056l0.22,0.162
			l1.761,1.298c0.579,0.453,1.204,0.784,1.803,1.184l0.906,0.577l0.93,0.49c2.47,1.338,5.044,2.254,7.594,2.46
			c2.549,0.209,5.087-0.222,7.612-1.326c0.631-0.276,1.263-0.542,1.892-0.887c0.63-0.308,1.259-0.669,1.887-1.038
			c0.634-0.35,1.248-0.763,1.872-1.144l1.941-1.265L398.905,233.344z"/>
		<path clip-path="url(#SVGID_29_)" fill="#4F332E" d="M377.304,190.153c-0.01,0.005,0.091-0.063,0.129-0.109
			c0.075-0.071,0.184-0.175,0.322-0.308c0.302-0.316,0.733-0.796,1.164-1.449c0.2-0.336,0.439-0.684,0.625-1.096
			c0.097-0.201,0.197-0.408,0.299-0.619c0.082-0.222,0.165-0.448,0.25-0.678c0.194-0.446,0.272-0.964,0.425-1.449
			c0.072-0.519,0.197-1.024,0.232-1.556c0.014-0.538,0.112-1.049,0.064-1.586c-0.038-0.534,0.007-1.04-0.086-1.553
			c-0.066-0.505-0.131-0.993-0.192-1.456c-0.103-0.464-0.201-0.902-0.291-1.307c-0.074-0.402-0.179-0.771-0.292-1.097
			c-0.102-0.326-0.191-0.61-0.264-0.844c-0.144-0.465-0.227-0.732-0.227-0.732l-0.063-0.204c-0.52-1.681,0.42-3.465,2.101-3.986
			c1.681-0.52,3.465,0.421,3.985,2.102c0.039,0.124,0.072,0.267,0.095,0.392c0,0,0.06,0.341,0.164,0.936
			c0.051,0.297,0.113,0.658,0.184,1.072c0.08,0.409,0.147,0.879,0.18,1.406c0.044,0.521,0.091,1.085,0.141,1.681
			c0.016,0.604,0.002,1.248-0.001,1.906c0.021,0.654-0.106,1.354-0.161,2.046c-0.042,0.693-0.246,1.404-0.372,2.104
			c-0.148,0.7-0.4,1.39-0.604,2.065c-0.29,0.658-0.507,1.322-0.851,1.917c-0.161,0.299-0.319,0.594-0.474,0.882
			c-0.18,0.275-0.356,0.544-0.528,0.806c-0.336,0.524-0.728,0.976-1.072,1.396c-0.719,0.824-1.419,1.425-1.935,1.829
			c-0.271,0.198-0.473,0.348-0.672,0.474c-0.196,0.129-0.23,0.139-0.239,0.146c-0.864,0.563-2.021,0.318-2.583-0.547
			C376.194,191.872,376.439,190.715,377.304,190.153"/>
		<path clip-path="url(#SVGID_29_)" fill="#FFD8B9" d="M559.698,582.574c8.297,25.294,30.989,39.983,52.8,45.062
			c8.561-1.548,16.627-3.605,24.207-6.012c10.059-3.21,43.557-20.645,54.732-33.983c5.706-0.198,17.468-6.145,26.032-15.047
			c5.679-5.907,11.67-18.104,14.698-32.588c0.049-1.211,0.169-2.355,0.383-3.419c-1.32-3.254-2.425-5.221-2.425-5.221L708.4,520.57
			c0,0-83.139-9.717-112.399-4.438C566.741,521.419,547.566,545.594,559.698,582.574"/>
		<g clip-path="url(#SVGID_29_)">
			<g>
				<defs>
					<rect id="SVGID_36_" x="267.933" y="342.619" width="425.479" height="288.124"/>
				</defs>
				<clipPath id="SVGID_37_">
					<use xlink:href="#SVGID_36_"  overflow="visible"/>
				</clipPath>
				<path clip-path="url(#SVGID_37_)" fill="#E2D3E0" d="M273.68,342.995c-1.251,26.539,3.199,54.408,10.512,83
					c16.103,62.947,107.845,139.995,228.862,177.978c40.538,12.721,75.616,13.415,104.977,8.126
					c8.561-1.547,16.628-3.604,24.207-6.011c6.467-2.063,22.62-10.009,36.303-18.964c4.987,0.371,9.983,0.583,14.871,0.259
					c-0.712,0.142-1.382,0.238-1.974,0.26c-11.176,13.339-44.674,30.772-54.733,33.982c-7.579,2.406-15.646,4.464-24.207,6.011
					c-29.36,5.288-64.438,4.595-104.976-8.126c-121.018-37.982-212.76-115.03-228.862-177.979
					c-8.791-34.368-13.45-67.688-9.037-98.912C270.814,342.994,272.164,343.136,273.68,342.995"/>
			</g>
		</g>
		<path clip-path="url(#SVGID_29_)" fill="none" stroke="#8E412A" stroke-width="8" stroke-miterlimit="10" d="M269.524,343.251
			c-4.258,31.04,0.403,64.144,9.135,98.279c16.103,62.948,107.845,139.997,228.862,177.979
			c40.538,12.72,75.616,13.415,104.977,8.126c8.561-1.547,16.627-3.604,24.207-6.011"/>
		
			<path clip-path="url(#SVGID_29_)" fill="none" stroke="#8E412A" stroke-width="7" stroke-linecap="round" stroke-linejoin="round" stroke-miterlimit="10" d="
			M597.36,629.525c11.437-1.259,31.765-5.494,39.344-7.9c10.06-3.21,43.558-20.644,54.733-33.982
			c5.706-0.198,17.468-6.146,26.032-15.048c5.679-5.907,11.67-18.104,14.698-32.589c0.048-1.211,0.17-2.354,0.384-3.419
			c-1.321-3.253-2.426-5.22-2.426-5.22L708.4,520.57"/>
		<path clip-path="url(#SVGID_29_)" fill="#DB3234" d="M678.106,479.693c11.566-4.085,35.793-14.862,62.425-4.505
			c26.631,10.357,19.595,46.37,7.813,58.631c-11.779,12.261-39.467,35.675-78.941,13.481
			C629.927,525.106,645.217,491.309,678.106,479.693"/>
		<path clip-path="url(#SVGID_29_)" fill="none" stroke="#640F1A" stroke-width="6.822" stroke-miterlimit="10" d="M678.106,479.693
			c11.566-4.085,35.793-14.862,62.425-4.505c26.631,10.357,19.595,46.37,7.813,58.631c-11.779,12.261-39.467,35.675-78.941,13.481
			C629.927,525.106,645.217,491.309,678.106,479.693z"/>
		<g clip-path="url(#SVGID_29_)">
			<g>
				<defs>
					<rect id="SVGID_38_" x="648.989" y="470.848" width="111.011" height="42.279"/>
				</defs>
				<clipPath id="SVGID_39_">
					<use xlink:href="#SVGID_38_"  overflow="visible"/>
				</clipPath>
				<path clip-path="url(#SVGID_39_)" fill="#DB3234" d="M648.988,503.057c5.656-6.281,13.723-11.524,23.265-14.896
					c11.569-4.077,35.799-14.858,62.43-4.498c13.631,5.297,19.112,17.351,18.976,29.464c2.343-3.509,4.342-7.891,6.342-12.76v-0.01
					c-2-10.517-6.811-20.472-18.805-25.137c-26.631-10.361-51.191,0.405-62.762,4.482C664.854,484.5,653.94,493.07,648.988,503.057"
					/>
			</g>
		</g>
		<g clip-path="url(#SVGID_29_)">
			<g>
				<defs>
					<rect id="SVGID_40_" x="645.898" y="500.309" width="112.95" height="56.188"/>
				</defs>
				<clipPath id="SVGID_41_">
					<use xlink:href="#SVGID_40_"  overflow="visible"/>
				</clipPath>
				<path clip-path="url(#SVGID_41_)" fill="#E2D3E0" d="M669.404,547.305c39.036,21.947,66.553-0.711,78.538-13.077
					c0.145-0.137,0.269-0.275,0.402-0.413c5.087-5.291,9.289-15.01,10.28-25.182c0.04-0.418,0.07-0.838,0.102-1.257
					c0.032-0.429,0.064-0.857,0.075-1.288c0.021-0.409,0.03-0.82,0.04-1.231c0.006-0.372,0.001-0.734,0.007-1.105
					c-0.018-1.156-0.067-2.297-0.177-3.442c-1.346,4.842-3.335,9.279-5.677,12.79c-0.943,1.435-1.952,2.713-3.002,3.796
					c-11.775,12.267-39.466,35.682-78.94,13.49c-13.602-7.655-20.709-16.687-22.814-25.714
					C642.288,518.52,647.105,534.764,669.404,547.305"/>
			</g>
		</g>
		<path clip-path="url(#SVGID_29_)" fill="#8E412A" d="M700.156,588.865c0,0-0.082,0.032-0.24,0.095
			c-0.117,0.05-0.523,0.192-0.932,0.332c-0.719,0.229-1.698,0.528-2.946,0.846c-2.494,0.654-6.041,1.411-10.335,2.035
			c-2.149,0.287-4.479,0.581-6.954,0.754c-2.472,0.196-5.087,0.303-7.792,0.311c-2.706,0.018-5.502-0.101-8.334-0.316
			c-2.831-0.239-5.701-0.577-8.544-1.091l-2.129-0.385l-2.112-0.465c-1.408-0.289-2.789-0.679-4.161-1.049
			c-1.379-0.345-2.708-0.833-4.039-1.237c-1.321-0.438-2.603-0.95-3.874-1.411c-1.245-0.528-2.47-1.049-3.668-1.558
			c-1.17-0.571-2.314-1.13-3.429-1.673c-1.095-0.58-2.14-1.184-3.16-1.746c-1.021-0.56-1.948-1.204-2.869-1.768
			c-0.925-0.558-1.772-1.15-2.567-1.729c-0.799-0.576-1.569-1.1-2.267-1.631c-1.359-1.104-2.575-2.028-3.52-2.855
			c-1.866-1.679-2.932-2.638-2.932-2.638c-0.689-0.62-0.744-1.681-0.125-2.37c0.604-0.671,1.626-0.742,2.315-0.172l0.078,0.064
			c0,0,1.055,0.874,2.9,2.404c0.934,0.752,2.129,1.583,3.462,2.581c0.681,0.478,1.436,0.945,2.214,1.46
			c0.774,0.52,1.601,1.048,2.499,1.541c0.895,0.496,1.793,1.073,2.781,1.562c0.987,0.491,1.995,1.021,3.051,1.526
			c1.07,0.471,2.172,0.953,3.297,1.447c1.148,0.433,2.321,0.877,3.516,1.327c1.217,0.384,2.439,0.817,3.7,1.18
			c1.271,0.327,2.535,0.739,3.849,1.01c1.307,0.294,2.617,0.61,3.956,0.827l2.003,0.357l2.021,0.281
			c2.695,0.375,5.412,0.582,8.087,0.699c2.678,0.096,5.317,0.101,7.867-0.02c2.55-0.112,5.011-0.312,7.333-0.592
			c2.326-0.258,4.507-0.624,6.514-0.976c4.004-0.749,7.292-1.592,9.519-2.275c1.116-0.332,1.97-0.636,2.497-0.825
			c0.206-0.087,0.281-0.099,0.475-0.188c0.155-0.067,0.235-0.103,0.235-0.103l0.076-0.034c1.771-0.777,3.836,0.029,4.613,1.799
			c0.777,1.771-0.028,3.836-1.799,4.614C700.248,588.828,700.196,588.849,700.156,588.865"/>
		<path clip-path="url(#SVGID_29_)" fill="#8E412A" d="M626.803,559.673c0,0-0.057,0.118-0.165,0.34
			c-0.11,0.212-0.264,0.524-0.491,0.897c-0.445,0.752-1.13,1.791-2.076,2.937c-0.468,0.577-0.998,1.185-1.597,1.788
			c-0.59,0.612-1.231,1.243-1.941,1.842c-0.698,0.608-1.438,1.223-2.231,1.788c-0.79,0.58-1.603,1.111-2.457,1.658
			c-0.793,0.479-1.725,0.993-2.567,1.426c-0.862,0.447-1.741,0.827-2.593,1.183c-1.706,0.709-3.352,1.224-4.776,1.586
			c-1.424,0.369-2.629,0.579-3.474,0.703c-0.846,0.118-1.332,0.161-1.332,0.161c-0.533,0.049-1.005-0.345-1.053-0.878
			c-0.04-0.449,0.233-0.854,0.639-1c0,0,0.441-0.159,1.213-0.438c0.771-0.275,1.862-0.679,3.154-1.186
			c1.287-0.519,2.775-1.141,4.323-1.889c0.778-0.362,1.56-0.783,2.356-1.202c0.816-0.436,1.547-0.848,2.375-1.361
			c0.753-0.467,1.548-0.953,2.278-1.466c0.733-0.517,1.468-1.01,2.14-1.539c0.681-0.52,1.329-1.033,1.928-1.541
			c0.6-0.507,1.158-0.998,1.661-1.464c1.007-0.936,1.81-1.755,2.351-2.343c0.266-0.294,0.475-0.525,0.618-0.683
			c0.131-0.155,0.2-0.238,0.2-0.238l0.04-0.047c0.318-0.374,0.88-0.42,1.253-0.102C626.895,558.875,626.977,559.318,626.803,559.673
			"/>
		<path clip-path="url(#SVGID_29_)" fill="none" stroke="#640F1A" stroke-width="6.822" stroke-miterlimit="10" d="M678.106,479.693
			c11.566-4.085,35.793-14.862,62.425-4.505c26.631,10.357,19.595,46.37,7.813,58.631c-11.779,12.261-39.467,35.675-78.941,13.481
			C629.927,525.106,645.217,491.309,678.106,479.693z"/>
		<path clip-path="url(#SVGID_29_)" fill="#8E412A" d="M366.875,268.877c0,0-1.537-1.608-4.419-4.622
			c-2.817-3.044-6.95-7.509-12.209-13.192c-5.239-5.676-11.481-12.65-18.82-20.478c-7.375-7.788-15.972-16.321-25.899-24.976
			c-9.929-8.633-21.187-17.447-33.999-25.206c-6.404-3.864-13.209-7.453-20.39-10.448c-7.3-3.039-14.846-5.787-22.692-8.014
			c-7.836-2.217-15.953-3.909-24.223-4.727c-8.255-0.805-16.705-0.755-24.855,0.82c-4.065,0.792-8.044,1.981-11.74,3.681
			c-3.694,1.689-7.103,3.922-9.827,6.719c-1.354,1.401-2.535,2.938-3.473,4.591c-0.462,0.83-0.879,1.681-1.225,2.557
			c-0.162,0.442-0.336,0.88-0.465,1.332c-0.068,0.225-0.146,0.447-0.199,0.676l-0.16,0.616c-0.497,2.261-0.782,4.09-1.041,6.259
			c-0.231,2.112-0.403,4.247-0.487,6.4c-0.354,8.613,0.193,17.359,1.249,25.986c1.076,8.632,2.674,17.181,4.829,25.502
			c2.163,8.315,4.844,16.425,8.226,24.076c1.701,3.818,3.58,7.517,5.679,11.026c2.148,3.573,4.374,7.151,6.578,10.63
			c4.434,6.966,8.981,13.657,13.936,19.76c4.951,6.096,10.282,11.63,16.082,16.233c5.803,4.585,12.027,8.282,18.478,10.83
			c6.426,2.622,13.043,4.068,19.46,4.825c1.614,0.122,3.205,0.317,4.792,0.373c1.594,0.058,3.132,0.142,4.743,0.155
			c3.183,0.055,6.292,0.109,9.323,0.162c6.06,0.1,11.809,0.196,17.211,0.286c10.808,0.201,20.23,0.376,27.989,0.52
			c15.523,0.377,24.394,0.593,24.394,0.593c0.391,0.008,0.701,0.332,0.692,0.723c-0.007,0.371-0.306,0.671-0.671,0.692
			c0,0-2.218,0.114-6.377,0.33c-4.159,0.162-10.259,0.451-18.025,0.674c-7.766,0.227-17.197,0.439-28.017,0.533
			c-5.411,0.057-11.166,0.094-17.239,0.071c-3.033-0.009-6.145-0.019-9.33-0.028c-1.573,0.013-3.254-0.061-4.914-0.106
			c-1.669-0.045-3.353-0.23-5.057-0.345c-6.792-0.731-13.86-2.202-20.761-4.938c-6.926-2.658-13.628-6.551-19.83-11.358
			c-6.2-4.823-11.852-10.588-17.051-16.863c-5.203-6.284-9.93-13.103-14.495-20.123c-2.281-3.525-4.521-7.047-6.762-10.693
			c-2.274-3.719-4.291-7.601-6.113-11.584c-3.62-7.978-6.472-16.349-8.79-24.912c-2.308-8.567-4.037-17.345-5.235-26.24
			c-1.175-8.899-1.839-17.918-1.556-27.043c0.067-2.281,0.227-4.573,0.456-6.871c0.233-2.239,0.629-4.796,1.071-6.867
			c1.108-5.148,3.783-9.584,7.217-13.147c3.441-3.554,7.553-6.218,11.835-8.199c4.292-1.99,8.774-3.332,13.274-4.225
			c9.019-1.77,18.084-1.826,26.849-1.006c8.776,0.839,17.287,2.591,25.46,4.872c8.167,2.29,16.037,5.104,23.497,8.266
			c7.59,3.197,14.663,6.966,21.299,11c13.263,8.096,24.763,17.177,34.878,26.029c10.108,8.875,18.818,17.583,26.283,25.519
			c7.496,7.911,13.61,15.191,18.303,21.447c4.714,6.242,8.067,11.408,10.267,14.982c2.171,3.597,3.186,5.617,3.186,5.617
			l0.003,0.006c0.183,0.365,0.036,0.808-0.328,0.992C367.442,269.176,367.092,269.105,366.875,268.877"/>
		<path clip-path="url(#SVGID_29_)" fill="#FFF6F1" d="M543.648,462.212c-4.736-29.073-12.927-49.859-37.548-73.866
			c-24.622-24.006-62.171-38.215-87.408-16.953c-25.238,21.262-17.72,66.197-9.168,81.586c8.552,15.388,35.958,60.086,84.81,59.092
			C540.528,511.132,548.793,493.786,543.648,462.212"/>
	</g>
	<g clip-path="url(#SVGID_2_)">
		<defs>
			<path id="SVGID_42_" d="M410.534,362.305c-26.868,22.636-18.864,70.473-9.759,86.856c9.104,16.383,38.28,63.967,90.288,62.909
				c49.179-1,57.976-19.465,52.5-53.079c-5.044-30.951-13.763-53.081-39.975-78.638c-17.245-16.813-40.452-29.113-61.959-29.115
				C430.446,351.237,419.726,354.561,410.534,362.305"/>
		</defs>
		<clipPath id="SVGID_43_">
			<use xlink:href="#SVGID_42_"  overflow="visible"/>
		</clipPath>
		<path clip-path="url(#SVGID_43_)" fill="#1C2D2E" d="M453.385,469.915c0.049,0.1,0.112,0.207,0.161,0.309
			c2.144,4.154,4.527,8.082,7.096,11.761c1.841,2.628,3.78,5.126,5.802,7.485c6.285,7.374,13.363,13.424,20.712,17.862
			c9.366,5.649,19.178,8.691,28.38,8.518c2.808-0.783,5.517-1.822,8.122-3.126c13.234-6.641,20.468-19.071,22.469-34.57
			c0.676-5.128,0.771-10.587,0.313-16.295c-0.051-0.574-0.103-1.159-0.155-1.744c-2.002-9.237-5.505-18.911-10.364-28.402
			c-17.565-34.283-45.498-51.799-70.452-42.86C434.871,399.816,435.828,435.618,453.385,469.915"/>
		<path clip-path="url(#SVGID_43_)" fill="#335856" d="M466.444,489.469c6.284,7.374,13.363,13.424,20.712,17.861l18.566-24.809
			l-9.883-7.971L466.444,489.469z"/>
		<path clip-path="url(#SVGID_43_)" fill="#335856" d="M453.546,470.222c2.143,4.154,4.526,8.082,7.096,11.762l28.104-14.108
			l-4.671-7.809C484.075,460.066,463.771,466.901,453.546,470.222"/>
		<path clip-path="url(#SVGID_43_)" fill="#335856" d="M519.917,476.012l26.21,2.141c0.676-5.128,0.771-10.586,0.313-16.295
			l-23.908,2.355L519.917,476.012z"/>
		<path clip-path="url(#SVGID_43_)" fill="#021111" d="M469.815,462.785c10.652,20.801,31.206,32.509,45.908,26.152
			c14.701-6.358,14.813-28.522,4.162-49.322c-10.653-20.801-27.6-31.43-42.738-26.004
			C458.583,420.264,459.164,441.983,469.815,462.785"/>
		<path clip-path="url(#SVGID_43_)" fill="#FFF6F1" d="M458.861,411.423c8.381-3.171,19.405,3.664,24.622,15.267
			c5.216,11.602,2.651,23.579-5.73,26.75c-8.382,3.171-19.405-3.664-24.622-15.267C447.915,426.57,450.48,414.595,458.861,411.423"
			/>
		<path clip-path="url(#SVGID_43_)" fill="#FFF6F1" d="M510.195,461.617c3.508-0.671,7.334,2.021,8.546,6.013
			c1.212,3.992-0.649,7.772-4.156,8.443c-3.508,0.671-7.334-2.021-8.546-6.014C504.827,466.067,506.687,462.288,510.195,461.617"/>
	</g>
	<g clip-path="url(#SVGID_2_)">
		<defs>
			<rect id="SVGID_44_" width="960" height="929.319"/>
		</defs>
		<clipPath id="SVGID_45_">
			<use xlink:href="#SVGID_44_"  overflow="visible"/>
		</clipPath>
		<path clip-path="url(#SVGID_45_)" fill="#8E412A" d="M542.393,462.431c0,0-0.301-1.786-0.862-5.136
			c-0.64-3.302-1.494-8.182-3.151-14.252c-1.671-6.051-4.07-13.333-8.086-21.094c-1.963-3.901-4.42-7.854-7.198-11.885
			c-2.778-4.036-6.067-8.018-9.617-12.063c-1.854-1.954-3.668-4.02-5.69-5.968c-0.993-0.979-1.998-2.011-3.006-2.974
			c-1.051-0.982-2.109-1.992-3.19-2.92c-4.309-3.825-9.119-7.43-14.308-10.691c-2.605-1.619-5.318-3.134-8.119-4.555
			c-2.814-1.392-5.727-2.661-8.727-3.782c-6.008-2.188-12.401-3.787-18.974-4.169c-6.555-0.394-13.284,0.41-19.519,2.826
			c-6.226,2.438-11.871,6.433-16.33,11.573c-4.446,5.143-7.485,11.49-9.358,18.176c-1.9,6.698-2.651,13.777-2.561,20.838
			c0.089,7.065,0.975,14.146,2.619,20.985c0.832,3.413,1.841,6.779,3.129,9.972c0.643,1.594,1.369,3.14,2.16,4.588
			c0.883,1.575,1.749,3.068,2.647,4.591c7.168,12.088,15.78,23.098,25.713,31.959c4.946,4.448,10.256,8.288,15.751,11.516
			c5.529,3.167,11.289,5.629,17.104,7.322c5.813,1.71,11.685,2.592,17.39,2.824c1.423,0.021,2.833,0.041,4.229,0.062
			c1.438-0.038,2.863-0.076,4.274-0.113c1.387-0.074,2.76-0.147,4.12-0.22c1.36-0.117,2.715-0.191,4.043-0.342
			c5.318-0.543,10.364-1.429,14.964-2.817c4.574-1.43,8.712-3.369,11.967-5.979c3.274-2.582,5.602-5.79,7.043-9.098
			c1.492-3.296,2.111-6.66,2.462-9.699c0.622-6.124,0.104-11.062-0.239-14.384c-0.188-1.667-0.359-2.943-0.493-3.802
			c-0.124-0.86-0.188-1.304-0.188-1.304L542.393,462.431z M544.907,462.007c0,0,0.071,0.452,0.211,1.327
			c0.147,0.873,0.343,2.174,0.56,3.88c0.398,3.405,1.021,8.459,0.458,14.979c-0.328,3.241-0.935,6.894-2.542,10.604
			c-1.549,3.713-4.162,7.43-7.795,10.374c-3.613,2.979-8.102,5.14-12.945,6.73c-4.864,1.547-10.11,2.54-15.591,3.18
			c-2.738,0.319-5.544,0.534-8.421,0.701c-1.414,0.059-2.841,0.116-4.28,0.175c-1.48,0.002-2.976,0.002-4.481,0.002
			c-6.002-0.151-12.212-1.01-18.373-2.735c-6.163-1.71-12.277-4.234-18.134-7.493c-5.819-3.319-11.452-7.266-16.612-11.901
			c-10.393-9.2-19.317-20.54-26.739-32.939c-0.926-1.541-1.84-3.147-2.7-4.698c-0.92-1.697-1.705-3.407-2.4-5.146
			c-1.381-3.476-2.425-7.034-3.285-10.634c-1.695-7.203-2.584-14.593-2.644-22.017c-0.054-7.416,0.755-14.899,2.839-22.086
			c2.096-7.155,5.486-14.057,10.46-19.676c4.948-5.576,11.237-9.916,18.07-12.486c6.86-2.566,14.167-3.327,21.143-2.818
			c7.002,0.498,13.687,2.27,19.919,4.627c3.109,1.207,6.115,2.562,9.009,4.04c2.88,1.505,5.66,3.105,8.323,4.806
			c5.312,3.433,10.181,7.177,14.586,11.186c1.128,0.997,2.158,2.006,3.198,3.002c1.061,1.039,2.034,2.065,3.04,3.083
			c2.026,2.002,3.852,4.13,5.711,6.141c3.565,4.167,6.868,8.27,9.659,12.432c2.789,4.156,5.252,8.234,7.21,12.249
			c4.079,7.954,6.547,15.38,8.257,21.53c1.754,6.149,2.679,11.087,3.366,14.443c0.601,3.342,0.922,5.125,0.922,5.125
			L544.907,462.007z"/>
		<path clip-path="url(#SVGID_45_)" fill="#FFF6F1" d="M619.427,328.723c-11.851-3.726-17.019,29.204-10.957,60.062
			c6.061,30.857,14.599,53.385,27.815,61.409c13.382,8.123,21.585-1.436,17.92-34.409
			C650.276,380.447,640.342,335.299,619.427,328.723"/>
	</g>
	<g clip-path="url(#SVGID_2_)">
		<defs>
			<path id="SVGID_46_" d="M608.469,388.784c6.062,30.858,14.6,53.387,27.817,61.41c13.38,8.123,21.583-1.436,17.919-34.409
				c-3.928-35.338-13.863-80.486-34.778-87.062c-0.619-0.195-1.221-0.289-1.803-0.289
				C607.066,328.432,602.725,359.539,608.469,388.784"/>
		</defs>
		<clipPath id="SVGID_47_">
			<use xlink:href="#SVGID_46_"  overflow="visible"/>
		</clipPath>
		<path clip-path="url(#SVGID_47_)" fill="#1C2D2E" d="M612.573,409.759c0.016,0.086,0.037,0.181,0.053,0.267
			c0.704,3.584,1.535,7.061,2.469,10.401c0.67,2.388,1.395,4.704,2.166,6.939c2.398,6.976,5.255,13.177,8.35,18.259
			c3.943,6.474,8.275,11.142,12.548,13.295c1.354,0.121,2.68,0.029,3.977-0.284c6.589-1.599,10.8-8.939,12.802-19.832
			c0.669-3.601,1.093-7.589,1.277-11.897c0.017-0.434,0.032-0.877,0.049-1.32c-0.286-7.283-1.235-15.261-2.827-23.44
			c-5.752-29.546-17.468-49.342-29.642-48.959C608.868,353.66,606.825,380.205,612.573,409.759"/>
		<path clip-path="url(#SVGID_47_)" fill="#335856" d="M617.262,427.366c2.397,6.976,5.255,13.177,8.349,18.259l10.317-13.627
			l-4.021-8.307L617.262,427.366z"/>
		<path clip-path="url(#SVGID_47_)" fill="#335856" d="M612.626,410.026c0.704,3.584,1.535,7.061,2.47,10.402l13.989-3.4
			l-1.62-6.897C627.465,410.131,617.59,410.12,612.626,410.026"/>
		<path clip-path="url(#SVGID_47_)" fill="#335856" d="M642.952,430.733l11.984,8.071c0.67-3.601,1.092-7.589,1.277-11.896
			l-11.232-4.197L642.952,430.733z"/>
		<path clip-path="url(#SVGID_47_)" fill="#021111" d="M620.675,408.593c3.487,17.926,12.19,31.624,19.438,30.597
			c7.248-1.027,8.839-17.286,5.352-35.211c-3.488-17.926-10.597-29.937-17.981-29.703
			C618.427,374.563,617.187,390.668,620.675,408.593"/>
		<path clip-path="url(#SVGID_47_)" fill="#FFF6F1" d="M619.169,368.136c4.1-0.252,8.729,7.503,10.339,17.322
			c1.609,9.819-0.409,17.984-4.51,18.236c-4.101,0.253-8.729-7.503-10.34-17.322C613.049,376.553,615.068,368.388,619.169,368.136"
			/>
		<path clip-path="url(#SVGID_47_)" fill="#FFF6F1" d="M639.45,417.745c1.67,0.377,3.255,3.303,3.539,6.537
			c0.283,3.234-0.841,5.55-2.511,5.174c-1.671-0.377-3.255-3.304-3.539-6.537C636.656,419.685,637.78,417.368,639.45,417.745"/>
	</g>
	<g clip-path="url(#SVGID_2_)">
		<defs>
			<rect id="SVGID_48_" width="960" height="929.319"/>
		</defs>
		<clipPath id="SVGID_49_">
			<use xlink:href="#SVGID_48_"  overflow="visible"/>
		</clipPath>
		<path clip-path="url(#SVGID_49_)" fill="#8E412A" d="M619.146,329.999c0,0-0.27-0.06-0.794-0.178
			c-0.306-0.095-0.49-0.047-0.751-0.061c-0.24-0.053-0.608,0.075-0.988,0.107c-0.751,0.22-1.664,0.718-2.566,1.68
			c-0.905,0.951-1.78,2.317-2.552,3.986c-1.552,3.35-2.682,7.875-3.423,13.135c-0.749,5.27-1.013,11.322-0.8,17.903
			c0.216,6.583,0.947,13.71,2.373,21.118c1.494,7.451,3.248,15.248,5.595,23.167c2.351,7.896,5.203,15.968,9.319,23.456
			c2.091,3.707,4.514,7.262,7.473,10.246c1.461,1.509,3.103,2.801,4.831,3.92l0.319,0.22l0.321,0.181l0.724,0.409
			c0.473,0.252,0.888,0.448,1.345,0.666c0.928,0.4,1.865,0.75,2.8,0.952c0.932,0.193,1.852,0.273,2.717,0.184
			c0.861-0.102,1.654-0.384,2.372-0.827c1.443-0.875,2.556-2.477,3.336-4.296c1.576-3.678,2.06-8.003,2.271-12.212
			c0.364-8.518-0.657-16.982-1.729-25.196c-1.086-8.2-2.439-16.078-3.912-23.499c-1.536-7.407-3.238-14.352-5.154-20.644
			c-1.925-6.288-4.094-11.911-6.437-16.663c-2.362-4.737-4.916-8.594-7.452-11.319c-2.505-2.762-4.91-4.406-6.63-5.287
			c-0.85-0.481-1.548-0.724-2.015-0.902c-0.465-0.182-0.704-0.275-0.704-0.275L619.146,329.999z M619.818,327.476
			c0,0,0.279,0.102,0.818,0.3c0.541,0.196,1.353,0.47,2.329,0.997c1.982,0.974,4.716,2.795,7.479,5.748
			c2.803,2.921,5.543,6.959,8.15,11.816c2.567,4.88,4.958,10.607,7.072,16.994c1.052,3.194,2.075,6.544,3.01,10.039
			c0.917,3.501,1.777,7.138,2.582,10.892c1.604,7.509,2.934,15.492,3.994,23.783c1.036,8.258,2.095,16.942,1.651,25.897
			c-0.292,4.466-0.782,9.06-2.729,13.528c-0.98,2.19-2.453,4.458-4.833,5.893c-1.17,0.709-2.523,1.16-3.868,1.297
			c-1.346,0.128-2.653-0.013-3.886-0.286c-1.234-0.283-2.376-0.727-3.478-1.218c-0.542-0.26-1.123-0.553-1.623-0.829l-0.719-0.417
			l-0.398-0.232l-0.364-0.253c-1.978-1.305-3.81-2.796-5.404-4.476c-3.228-3.334-5.75-7.155-7.9-11.066
			c-4.217-7.885-7.019-16.153-9.319-24.202c-2.292-8.053-3.975-15.98-5.4-23.487c-1.409-7.572-2.106-14.831-2.285-21.544
			c-0.169-6.714,0.135-12.886,0.867-18.325c0.752-5.433,1.892-10.153,3.589-13.867c0.852-1.852,1.845-3.455,3.012-4.694
			c1.153-1.246,2.529-2.067,3.781-2.414c0.649-0.099,1.18-0.253,1.735-0.197c0.531,0.017,1.02,0.045,1.231,0.118
			c0.523,0.115,0.795,0.175,0.795,0.175L619.818,327.476z"/>
	</g>
</g>
</svg>
